<svg xmlns="http://www.w3.org/2000/svg" viewBox="0 0 68.22 63.05"><defs><style>.cls-1{fill:#fff;}</style></defs><g id="Layer_2" data-name="Layer 2"><g id="Artwork"><path class="cls-1" d="M68.08,19.56A21.53,21.53,0,0,0,60,5.2,20.77,20.77,0,0,0,44.44,1,20.54,20.54,0,0,0,34.54,5a39.35,39.35,0,0,0-3.33-2.28A21,21,0,0,0,4.52,7.65C.21,13-1,19.41.85,26.84a26.29,26.29,0,0,0,7,12,7.51,7.51,0,0,0,2.42,5.31A7.31,7.31,0,0,0,14.07,46a7,7,0,0,0,2,3.86A6.77,6.77,0,0,0,20,51.77a7.53,7.53,0,0,0,2.14,4,9.71,9.71,0,0,0,4.49,2.27,6.36,6.36,0,0,0,4.15,4.6,7.78,7.78,0,0,0,2.32.36,6.39,6.39,0,0,0,4.33-1.63l.08-.08.61-.58A34,34,0,0,0,43.38,55a6.17,6.17,0,0,0,5.21-.78,5.8,5.8,0,0,0,2.48-4.56,6.77,6.77,0,0,0,4.2-1.77,6.38,6.38,0,0,0,1.78-4.3,7,7,0,0,0,4.56-2.09A5.8,5.8,0,0,0,63,36.32a22.38,22.38,0,0,0,5.1-16.76ZM11.53,38.88l6.73-6.51a2.52,2.52,0,0,1,3.46.43,2.42,2.42,0,0,1,.45,2.79L15,42.5a3.47,3.47,0,0,1-2.23-1,3.84,3.84,0,0,1-1.26-2.63ZM17.6,45l7.08-6.83c.48-.25,2.11-1,3-.08a3.25,3.25,0,0,1,.77,3l-7.55,7.12a3.33,3.33,0,0,1-2.33-.93,3.52,3.52,0,0,1-1-2.24Zm5.87,5.76L31,43.72a3.39,3.39,0,0,1,3.06.77,3.68,3.68,0,0,1,.46,2.57l-7.18,7.47a5.82,5.82,0,0,1-2.76-1.38,3.91,3.91,0,0,1-1.08-2.35ZM35.6,58.12l-.66.62a3.12,3.12,0,0,1-3.06.51c-.67-.22-1.37-.6-1.85-2.31l7.25-7.56c.77-.38,2,.3,2.44.83a5.15,5.15,0,0,1,.9,2.3c-.21.57-1.18,2-5,5.61ZM59,39a3.84,3.84,0,0,1-3.4.94l-12.84-13a1.81,1.81,0,0,0-2.58,2.55l13.09,13.2a2.49,2.49,0,0,1-.52,2.59,3,3,0,0,1-2.84.57L36.65,32.28a1.81,1.81,0,0,0-2.59,2.53L47.34,48.43a2.54,2.54,0,0,1-.92,2.85,3,3,0,0,1-2.33.12,8.19,8.19,0,0,0-1.57-3.48,6.59,6.59,0,0,0-4.39-2.28,6.19,6.19,0,0,0-1.34-3.49A6.28,6.28,0,0,0,32.18,40a6.57,6.57,0,0,0-1.92-4.49A5.21,5.21,0,0,0,26,34.08a6.28,6.28,0,0,0-1.52-3.6A6.12,6.12,0,0,0,16,29.53l-.16.13-6.09,5.9A22.36,22.36,0,0,1,4.36,26c-1.61-6.35-.63-11.6,3-16a17.41,17.41,0,0,1,22.11-4,26.85,26.85,0,0,1,2.39,1.62L21.26,17.89a6.1,6.1,0,0,0-2.1,4.22,5.12,5.12,0,0,0,2,3.94c3.78,3.26,9.46,2.88,13.51-.89,1.49-1.39,4.88-4.71,6.75-6.54l18,18.27A2.33,2.33,0,0,1,59,39Zm1.84-5.78L42.73,14.78a1.86,1.86,0,0,0-1.28-.54h0a1.82,1.82,0,0,0-1.27.52c-.06.06-5.94,5.85-8,7.74-2.67,2.5-6.32,2.84-8.67.81a1.66,1.66,0,0,1-.73-1.16,2.62,2.62,0,0,1,.86-1.54l.11-.09L35.86,8.68a16.49,16.49,0,0,1,9.07-4.14A17.2,17.2,0,0,1,57.77,8a17.91,17.91,0,0,1,6.71,12,18.56,18.56,0,0,1-3.66,13.19Z"/></g></g></svg>