<svg xmlns="http://www.w3.org/2000/svg" viewBox="0 0 56.55 56.55"><defs><style>.cls-1{fill:#fff;}</style></defs><g id="Layer_2" data-name="Layer 2"><g id="Artwork"><path class="cls-1" d="M17.67,31.81a1.75,1.75,0,0,0,1.06-.35A1.77,1.77,0,0,0,19.08,29a15.91,15.91,0,1,1,25.46,0,1.77,1.77,0,1,0,2.82,2.13,19.44,19.44,0,1,0-31.1,0,1.75,1.75,0,0,0,1.41.71Z"/><path class="cls-1" d="M55.68,35.07A5.16,5.16,0,0,0,49,33.51L35.67,40.65H23.36a1.77,1.77,0,1,0,0,3.53H36.11A1.74,1.74,0,0,0,37,44l13.73-7.36a1.62,1.62,0,0,1,2.09.46A1.35,1.35,0,0,1,53,38.15a1.39,1.39,0,0,1-.7.93L30.35,51.85a5.67,5.67,0,0,1-4,.66l-15.46-3a1.93,1.93,0,0,0-.34,0V38.88H26.51a1.77,1.77,0,1,0,0-3.54H10.6V33.58a1.76,1.76,0,0,0-1.76-1.77H1.77A1.77,1.77,0,0,0,0,33.58v21.2a1.77,1.77,0,0,0,1.77,1.77H8.84a1.76,1.76,0,0,0,1.76-1.77V53.05L25.72,56a8.94,8.94,0,0,0,1.78.17,9.12,9.12,0,0,0,4.63-1.25L54.06,42.14a5,5,0,0,0,2.37-3.21,4.9,4.9,0,0,0-.75-3.86ZM7.07,53H3.53V35.34H7.07Z"/><path class="cls-1" d="M37.51,26.86H29.93V23.09h5.44a1.68,1.68,0,0,0,0-3.36H29.93V15.15a2,2,0,0,1,.55-1.53,2.12,2.12,0,0,1,3,0A2.08,2.08,0,0,1,34,15.14a1.68,1.68,0,1,0,3.36,0,5.4,5.4,0,1,0-10.79,0v4.53l-.6,0a1.68,1.68,0,0,0,0,3.34l.6.05v3.68l-.6.05a1.68,1.68,0,0,0,.14,3.35h11.4a1.68,1.68,0,1,0,0-3.35Z"/></g></g></svg>