<svg xmlns="http://www.w3.org/2000/svg" viewBox="0 0 46.41 60.53"><defs><style>.cls-1{fill:#fff;}</style></defs><g id="Layer_2" data-name="Layer 2"><g id="Artwork"><path class="cls-1" d="M44.53,19.84H28.25a1.74,1.74,0,0,1-1.75-1.75V1.75A1.68,1.68,0,0,1,27.58.14a1.76,1.76,0,0,1,2,.4L45.87,16.89a1.77,1.77,0,0,1,.41,1.94,2,2,0,0,1-1.75,1ZM30,16.28H40.29L30,6.05Z"/><path class="cls-1" d="M44.53,60.53H1.75A1.73,1.73,0,0,1,0,58.78v-57A1.74,1.74,0,0,1,1.75,0h26.5a1.8,1.8,0,0,1,1.27.54L45.87,16.88a1.84,1.84,0,0,1,.54,1.28V58.85a1.84,1.84,0,0,1-.54,1.28,3.12,3.12,0,0,1-1.34.4ZM3.5,57H42.78V18.83L27.51,3.57H3.57V57Z"/><path class="cls-1" d="M37.13,27.11H23.68a1.74,1.74,0,0,1-1.75-1.75,1.78,1.78,0,0,1,1.75-1.75H37.13a1.75,1.75,0,0,1,0,3.5Z"/><path class="cls-1" d="M11.57,28.92a2,2,0,0,1-1.28-.54L8.14,26.23a1.76,1.76,0,0,1,2.49-2.49l.94.94,4-4a1.76,1.76,0,1,1,2.48,2.49l-5.31,5.31a1.94,1.94,0,0,1-1.21.47Z"/><path class="cls-1" d="M37.13,38.88H23.68a1.74,1.74,0,0,1-1.75-1.75,1.78,1.78,0,0,1,1.75-1.75H37.13a1.75,1.75,0,0,1,0,3.5Z"/><path class="cls-1" d="M11.57,40.62a2,2,0,0,1-1.28-.54L8.14,37.93a1.76,1.76,0,0,1,2.49-2.49l.94.94,4-4a1.76,1.76,0,1,1,2.48,2.49l-5.31,5.31a1.94,1.94,0,0,1-1.21.47Z"/><path class="cls-1" d="M37.13,50.58H23.68a1.74,1.74,0,0,1-1.75-1.75,1.78,1.78,0,0,1,1.75-1.75H37.13a1.75,1.75,0,1,1,0,3.5Z"/><path class="cls-1" d="M11.57,52.33a2,2,0,0,1-1.28-.54L8.14,49.64a1.76,1.76,0,1,1,2.49-2.49l.94.94,4-4a1.76,1.76,0,0,1,2.48,2.49l-5.31,5.31a2,2,0,0,1-1.21.48Z"/></g></g></svg>