<svg xmlns="http://www.w3.org/2000/svg" viewBox="0 0 67.47 58.64"><defs><style>.cls-1{fill:#fff;}</style></defs><g id="Layer_2" data-name="Layer 2"><g id="Artwork"><path class="cls-1" d="M14.53,26.42H12.12a2.55,2.55,0,1,0,0,5.09h2.41A2.54,2.54,0,0,0,17.07,29a2.38,2.38,0,0,0-.68-1.77A2.59,2.59,0,0,0,14.53,26.42Z"/><path class="cls-1" d="M27.06,26.42H24.65a2.55,2.55,0,0,0,0,5.09h2.41A2.55,2.55,0,0,0,29.61,29,2.58,2.58,0,0,0,27.06,26.42Z"/><path class="cls-1" d="M14.53,37.44H12.12a2.55,2.55,0,0,0,0,5.1h2.41A2.55,2.55,0,0,0,17.07,40a2.36,2.36,0,0,0-.68-1.76A2.55,2.55,0,0,0,14.53,37.44Z"/><path class="cls-1" d="M27.06,37.44H24.65a2.55,2.55,0,0,0,0,5.1h2.41A2.55,2.55,0,0,0,29.61,40,2.59,2.59,0,0,0,27.06,37.44Z"/><path class="cls-1" d="M55.64,47.77H49.45V44.69h4.44a1.37,1.37,0,1,0,0-2.73H49.45V38.22A1.67,1.67,0,0,1,49.9,37a1.73,1.73,0,0,1,2.42,0,1.66,1.66,0,0,1,.45,1.24,1.37,1.37,0,1,0,2.74,0,4.41,4.41,0,0,0-4.4-4.56A4.42,4.42,0,0,0,47.94,35a4.47,4.47,0,0,0-1.23,3.22v3.69l-.49,0a1.37,1.37,0,0,0,0,2.73l.49,0v3l-.49,0A1.38,1.38,0,0,0,45,49.14a1.36,1.36,0,0,0,1.37,1.36h9.3a1.37,1.37,0,1,0,0-2.73Z"/><path class="cls-1" d="M62.64,30.51a16.3,16.3,0,0,0-10.06-4.75l-.42,0c-.39,0-.1-.06-.52-.05l0-12a9.38,9.38,0,0,0-9.37-9.38H38.4V1.65A1.65,1.65,0,0,0,36.74,0a1.61,1.61,0,0,0-1.65,1.65v2.6H16.57V1.65A1.65,1.65,0,0,0,14.92,0a1.62,1.62,0,0,0-1.66,1.65v2.6H9.38A9.39,9.39,0,0,0,0,13.63v29.1a9.39,9.39,0,0,0,9.38,9.38h27.8l.74.07a10.79,10.79,0,0,0,1.41,1.64A16.48,16.48,0,1,0,62.64,30.51ZM3.3,13.63A6.11,6.11,0,0,1,9.38,7.5h3.88v2.6a1.66,1.66,0,0,0,1.66,1.66,1.62,1.62,0,0,0,1.65-1.66V7.5H35.09v2.6a1.65,1.65,0,0,0,1.65,1.66,1.62,1.62,0,0,0,1.65-1.66V7.5h3.89a6.11,6.11,0,0,1,6.07,6.13V17H3.3ZM35.65,48.18l.31.63H9.38a6.14,6.14,0,0,1-6.13-6.13V20.27H48.36v5.58l-1,.17c-3.23.56-12.45,4.14-12.84,16.16A15,15,0,0,0,35.65,48.18Zm25.05,3.7h0a13.74,13.74,0,1,1,4-9.72A13.65,13.65,0,0,1,60.7,51.88Z"/></g></g></svg>