<svg xmlns="http://www.w3.org/2000/svg" viewBox="0 0 62.18 55.25"><defs><style>.cls-1{fill:#fff;}</style></defs><g id="Layer_2" data-name="Layer 2"><g id="Artwork"><path class="cls-1" d="M5.08,41H9.13v4.21a5.07,5.07,0,0,0,5.08,5.07H31.33a1.59,1.59,0,1,0,0-3.17H14.21a1.9,1.9,0,0,1-1.91-1.9V41H27.37a1.59,1.59,0,1,0,0-3.17H5.08a1.9,1.9,0,0,1-1.91-1.9V11.15H45.6v3.91a1.59,1.59,0,1,0,3.17,0v-10A5.07,5.07,0,0,0,43.7,0H5.08A5.07,5.07,0,0,0,0,5.08V35.89A5.07,5.07,0,0,0,5.08,41Zm0-37.76H43.77a1.9,1.9,0,0,1,1.91,1.9V8H3.17v-3A1.9,1.9,0,0,1,5.08,3.2Z"/><path class="cls-1" d="M13.32,30.81H8.15a1.59,1.59,0,0,0,0,3.18h5.17a1.59,1.59,0,1,0,0-3.18Z"/><path class="cls-1" d="M20.68,30.81a1.59,1.59,0,0,0,0,3.18h5.15a1.59,1.59,0,1,0,0-3.18Z"/><path class="cls-1" d="M18.3,22.86V19.14a3.52,3.52,0,0,0-3.52-3.55H10.09a3.53,3.53,0,0,0-3.52,3.52v3.73a3.52,3.52,0,0,0,3.52,3.53h4.69a3.52,3.52,0,0,0,3.52-3.51Zm-3.17,0a.36.36,0,0,1-.35.36H10.09a.36.36,0,0,1-.35-.36V19.14a.36.36,0,0,1,.35-.36h4.69a.36.36,0,0,1,.36.36Z"/><path class="cls-1" d="M62.1,26.37a1.62,1.62,0,0,0-.46-1.12,1.57,1.57,0,0,0-1.12-.46c-5.18,0-9-1.42-12.22-4.61a1.59,1.59,0,0,0-2.22,0c-3.27,3.17-7,4.61-12.22,4.61a1.58,1.58,0,0,0-1.58,1.58c0,.86,0,1.76,0,2.68-.17,8.88-.4,21,14.42,26.11h0a1.55,1.55,0,0,0,1,0C62.54,50,62.31,37.9,62.14,29.05c0-.91,0-1.81,0-2.68ZM47.19,52C35.06,47.52,35.25,37.75,35.41,29.15V28a19,19,0,0,0,11.75-4.44A19,19,0,0,0,58.91,28v1.19c.22,8.6.41,18.37-11.72,22.84Z"/><path class="cls-1" d="M50.54,33.35l-5,4.95-1.74-1.74a1.59,1.59,0,0,0-2.25,2.25l2.86,2.86h0a1.61,1.61,0,0,0,2.25,0l6.08-6.09a1.58,1.58,0,0,0-2.24-2.23Z"/></g></g></svg>