<svg xmlns="http://www.w3.org/2000/svg" viewBox="0 0 66.72 61.95"><defs><style>.cls-1{fill:#fff;}</style></defs><g id="Layer_2" data-name="Layer 2"><g id="Artwork"><path class="cls-1" d="M60.47,20.66H58.82a25.58,25.58,0,0,0-8.21-10.24l2.27-7.75A2.1,2.1,0,0,0,52.29.55,2.06,2.06,0,0,0,50.13.14L37.25,5.07a32.91,32.91,0,0,0-4.61-.33c-10.41,0-19.16,4.67-24.06,12C4.9,16.4,4.2,14,4.12,13.67A2.08,2.08,0,0,0,0,14.49a8.35,8.35,0,0,0,6.42,6.09,25.39,25.39,0,0,0,6.38,29.05,7.31,7.31,0,0,0,10.5,10.18l3.51-3.51A33.24,33.24,0,0,0,40,56l3.82,3.82A7.31,7.31,0,0,0,54.16,49.47l-.75-.75a25.18,25.18,0,0,0,5.4-7.83h1.67a6.25,6.25,0,0,0,6.24-6.25V26.91a6.26,6.26,0,0,0-6.25-6.25Zm2.08,14a2.08,2.08,0,0,1-2.08,2.08H57.41a2.1,2.1,0,0,0-2,1.36,21.23,21.23,0,0,1-6.39,9,2.11,2.11,0,0,0-.75,1.51,2.13,2.13,0,0,0,.61,1.57l2.3,2.3a3.15,3.15,0,0,1-4.45,4.45l-4.66-4.66a2.06,2.06,0,0,0-1.47-.61,2,2,0,0,0-.55.07A28.77,28.77,0,0,1,26.61,52a2.09,2.09,0,0,0-1.92.56l-4.29,4.3A3.15,3.15,0,0,1,16,52.42l1.47-1.48a2.09,2.09,0,0,0-.23-3.14,21,21,0,0,1-8.66-17C8.53,18.31,18.89,8.9,32.64,8.9a28.87,28.87,0,0,1,4.51.37,2,2,0,0,0,1.07-.11L47.7,5.54,46.2,10.7A2.09,2.09,0,0,0,47.05,13a21.37,21.37,0,0,1,8.41,10.45,2.07,2.07,0,0,0,1.95,1.36h3.07a2.09,2.09,0,0,1,2.08,2.08Z"/><path class="cls-1" d="M48.5,24.81c0,3.86-5.78,3.86-5.78,0s5.78-3.85,5.78,0"/><path class="cls-1" d="M26.59,12.73H38.73v4.16H26.59Z"/></g></g></svg>