<svg width="18" height="19" viewBox="0 0 18 19" fill="none" xmlns="http://www.w3.org/2000/svg">
<path fill-rule="evenodd" clip-rule="evenodd" d="M13.7253 4.78242C13.4328 4.48992 12.9603 4.48992 12.6678 4.78242L9.00028 8.44242L5.33278 4.77492C5.04028 4.48242 4.56778 4.48242 4.27528 4.77492C3.98278 5.06742 3.98278 5.53992 4.27528 5.83242L7.94278 9.49992L4.27528 13.1674C3.98278 13.4599 3.98278 13.9324 4.27528 14.2249C4.56778 14.5174 5.04028 14.5174 5.33278 14.2249L9.00028 10.5574L12.6678 14.2249C12.9603 14.5174 13.4328 14.5174 13.7253 14.2249C14.0178 13.9324 14.0178 13.4599 13.7253 13.1674L10.0578 9.49992L13.7253 5.83242C14.0103 5.54742 14.0103 5.06742 13.7253 4.78242Z" fill="#3768AF"/>
</svg>
