<svg width="24" height="25" viewBox="0 0 24 25" fill="none" xmlns="http://www.w3.org/2000/svg">
<path fill-rule="evenodd" clip-rule="evenodd" d="M4.88889 20.5H19.1111C19.6 20.5 20 19.9 20 19.1667C20 18.4333 19.6 17.8333 19.1111 17.8333H4.88889C4.4 17.8333 4 18.4333 4 19.1667C4 19.9 4.4 20.5 4.88889 20.5ZM4.88889 13.8333H19.1111C19.6 13.8333 20 13.2333 20 12.5C20 11.7667 19.6 11.1667 19.1111 11.1667H4.88889C4.4 11.1667 4 11.7667 4 12.5C4 13.2333 4.4 13.8333 4.88889 13.8333ZM4 5.83333C4 6.56667 4.4 7.16667 4.88889 7.16667H19.1111C19.6 7.16667 20 6.56667 20 5.83333C20 5.1 19.6 4.5 19.1111 4.5H4.88889C4.4 4.5 4 5.1 4 5.83333Z" fill="white"/>
</svg>
