<svg width="25" height="26" viewBox="0 0 25 26" fill="none" xmlns="http://www.w3.org/2000/svg">
<path d="M24.9201 13.15C24.9201 15.6025 24.1929 17.9999 22.8304 20.0391C21.4678 22.0782 19.5312 23.6676 17.2654 24.6061C14.9996 25.5446 12.5064 25.7902 10.101 25.3118C7.69568 24.8333 5.48616 23.6523 3.75199 21.9181C2.01782 20.1839 0.836827 17.9745 0.35837 15.5691C-0.120086 13.1637 0.125532 10.6706 1.06406 8.40479C2.00259 6.13898 3.59191 4.20225 5.63108 2.83972C7.67025 1.47719 10.0676 0.75 12.5201 0.75C15.8072 0.755289 18.9581 2.06339 21.2824 4.3877C23.6067 6.712 24.9148 9.86296 24.9201 13.15ZM14.7301 6.73999C14.6927 6.18863 14.4473 5.67211 14.0436 5.2948C13.6398 4.91749 13.1078 4.70752 12.5551 4.70752C12.0025 4.70752 11.4705 4.91749 11.0667 5.2948C10.663 5.67211 10.4176 6.18863 10.3802 6.73999C10.3775 7.02842 10.4319 7.31455 10.5401 7.58191C10.6484 7.84927 10.8084 8.09262 11.011 8.29797C11.2135 8.50332 11.4546 8.66667 11.7205 8.77856C11.9864 8.89046 12.2717 8.94865 12.5602 8.94995C12.851 8.95548 13.1399 8.90197 13.4094 8.7926C13.6789 8.68324 13.9234 8.52033 14.1281 8.31372C14.3329 8.10712 14.4936 7.86108 14.6005 7.59058C14.7074 7.32007 14.7583 7.03074 14.7502 6.73999H14.7301ZM14.4301 10.8199H10.7301V21.46H14.4301V10.8199Z" fill="#DB256E"/>
</svg>
