<svg width="27" height="24" viewBox="0 0 27 24" fill="none" xmlns="http://www.w3.org/2000/svg">
<path d="M16.1202 5V3.67004H3.47015V13.89H5.22015V16.77H2.41016C1.87972 16.77 1.37104 16.5593 0.995972 16.1842C0.620899 15.8091 0.410156 15.3005 0.410156 14.77V2.77002C0.410156 2.23959 0.620899 1.73091 0.995972 1.35583C1.37104 0.980762 1.87972 0.77002 2.41016 0.77002H17.2302C17.7606 0.77002 18.2693 0.980762 18.6444 1.35583C19.0195 1.73091 19.2302 2.23959 19.2302 2.77002V5H16.1202ZM24.7101 7.66003C25.2406 7.66003 25.7493 7.87065 26.1244 8.24573C26.4995 8.6208 26.7101 9.1296 26.7101 9.66003V21.9301C26.7101 22.4605 26.4995 22.9692 26.1244 23.3442C25.7493 23.7193 25.2406 23.9301 24.7101 23.9301H9.86017C9.32974 23.9301 8.821 23.7193 8.44592 23.3442C8.07085 22.9692 7.86017 22.4605 7.86017 21.9301V9.66003C7.86017 9.1296 8.07085 8.6208 8.44592 8.24573C8.821 7.87065 9.32974 7.66003 9.86017 7.66003H24.7101ZM10.9202 10.46V21H23.6501V10.48L10.9202 10.46Z" fill="#DB256E"/>
</svg>
