<svg width="37" height="29" viewBox="0 0 37 29" fill="none" xmlns="http://www.w3.org/2000/svg">
<path d="M6.3102 7.09998C6.31019 6.98094 6.3338 6.86315 6.37966 6.7533C6.42551 6.64345 6.49265 6.54379 6.57729 6.46008C6.66192 6.37638 6.76235 6.31026 6.8727 6.26562C6.98305 6.22099 7.1012 6.19863 7.22023 6.19995H19.9202C20.1438 6.22349 20.3508 6.32898 20.5012 6.49609C20.6517 6.6632 20.7349 6.88013 20.7349 7.10498C20.7349 7.32983 20.6517 7.54676 20.5012 7.71387C20.3508 7.88098 20.1438 7.98647 19.9202 8.01001H7.22023C6.97889 8.01001 6.74734 7.91407 6.57668 7.74341C6.40602 7.57275 6.3102 7.34132 6.3102 7.09998ZM20.8402 11.65C20.8429 11.5306 20.8215 11.4119 20.7774 11.3009C20.7332 11.1899 20.6671 11.0891 20.5831 11.0042C20.4992 10.9192 20.3991 10.852 20.2886 10.8066C20.1781 10.7613 20.0596 10.7386 19.9402 10.74H7.22023C7.0934 10.7266 6.96507 10.7401 6.84377 10.7795C6.72247 10.8189 6.6108 10.8834 6.51601 10.9688C6.42122 11.0541 6.34548 11.1583 6.2936 11.2748C6.24172 11.3913 6.21486 11.5175 6.21486 11.645C6.21486 11.7726 6.24172 11.8986 6.2936 12.0151C6.34548 12.1316 6.42122 12.236 6.51601 12.3213C6.6108 12.4066 6.72247 12.4711 6.84377 12.5105C6.96507 12.5499 7.0934 12.5634 7.22023 12.55H19.9202C20.0387 12.5514 20.1563 12.529 20.2661 12.4843C20.3759 12.4395 20.4757 12.3733 20.5596 12.2894C20.6434 12.2056 20.7097 12.1058 20.7544 11.996C20.7992 11.8862 20.8215 11.7686 20.8202 11.65H20.8402ZM36.2802 11.65V21.65C36.2815 22.0081 36.2122 22.3628 36.0761 22.694C35.94 23.0251 35.7398 23.3262 35.4871 23.5798C35.2344 23.8335 34.9341 24.0347 34.6034 24.172C34.2728 24.3093 33.9182 24.38 33.5602 24.38H32.6502V28C32.6499 28.1726 32.6007 28.3416 32.5081 28.4872C32.4155 28.6328 32.2833 28.749 32.1271 28.8224C31.9709 28.8958 31.7971 28.9233 31.6259 28.9016C31.4547 28.8799 31.2932 28.8099 31.1602 28.7L25.9602 24.37H17.2102C16.8522 24.37 16.4977 24.2993 16.167 24.162C15.8364 24.0247 15.536 23.8235 15.2833 23.5698C15.0306 23.3162 14.8305 23.0151 14.6944 22.684C14.5583 22.3528 14.4888 21.9981 14.4901 21.64V18.92H11.2702L6.09023 24.92C5.97094 25.0625 5.81038 25.1645 5.63076 25.2122C5.45114 25.2598 5.26128 25.2507 5.08705 25.186C4.91283 25.1214 4.7628 25.0043 4.65773 24.8511C4.55266 24.6978 4.49761 24.5158 4.50014 24.33V18.88H3.59023C3.23219 18.88 2.87767 18.8093 2.54702 18.672C2.21636 18.5347 1.91605 18.3335 1.66335 18.0798C1.41064 17.8262 1.21046 17.5251 1.07436 17.194C0.938256 16.8628 0.868819 16.5081 0.870136 16.15V3.43994C0.870136 2.71855 1.15679 2.02682 1.66689 1.51672C2.17699 1.00662 2.86884 0.719971 3.59023 0.719971H23.5902C24.3116 0.719971 25.0035 1.00662 25.5136 1.51672C26.0237 2.02682 26.3102 2.71855 26.3102 3.43994V8.89001H33.5802C33.9383 8.89001 34.2928 8.9607 34.6234 9.09802C34.9541 9.23534 35.2544 9.43655 35.5071 9.69019C35.7598 9.94382 35.9599 10.2449 36.096 10.576C36.2321 10.9072 36.3015 11.262 36.3002 11.62L36.2802 11.65ZM23.5702 17.09C23.6892 17.09 23.807 17.0664 23.9169 17.0205C24.0267 16.9747 24.1264 16.9075 24.2101 16.8229C24.2938 16.7382 24.3599 16.6378 24.4046 16.5275C24.4492 16.4171 24.4716 16.2991 24.4702 16.1801V3.46997C24.4702 3.23035 24.3757 3.00045 24.2072 2.83008C24.0387 2.6597 23.8098 2.56269 23.5702 2.56006H3.57021C3.32967 2.56266 3.09968 2.65937 2.92958 2.82947C2.75949 2.99957 2.66278 3.22943 2.66017 3.46997V16.1801C2.66017 16.2996 2.68378 16.4178 2.72951 16.5282C2.77524 16.6386 2.84227 16.739 2.92678 16.8235C3.01128 16.908 3.11154 16.975 3.22194 17.0208C3.33235 17.0665 3.45071 17.09 3.57021 17.09H5.39016C5.6308 17.0918 5.86093 17.1889 6.03017 17.36C6.11352 17.4443 6.1794 17.5442 6.22402 17.6541C6.26864 17.7639 6.29113 17.8815 6.29018 18V21.9L10.1502 17.41C10.2338 17.3108 10.3378 17.2309 10.4552 17.1757C10.5726 17.1204 10.7005 17.0912 10.8302 17.09H23.5702ZM34.4602 11.65C34.4615 11.531 34.4392 11.4128 34.3946 11.3025C34.3499 11.1921 34.2838 11.0917 34.2001 11.0071C34.1164 10.9224 34.0167 10.8553 33.9069 10.8094C33.797 10.7636 33.6792 10.74 33.5602 10.74H26.2902V16.1801C26.2915 16.5381 26.2221 16.8928 26.086 17.224C25.9499 17.5552 25.7498 17.8561 25.4971 18.1097C25.2444 18.3634 24.9441 18.5647 24.6134 18.702C24.2828 18.8393 23.9282 18.91 23.5702 18.91H16.3002V21.63C16.3002 21.8714 16.396 22.1028 16.5667 22.2734C16.7373 22.4441 16.9689 22.54 17.2102 22.54H26.2902C26.5016 22.5428 26.7059 22.6168 26.8701 22.75L30.8701 26.05V23.45C30.8701 23.2086 30.9661 22.9772 31.1367 22.8065C31.3074 22.6359 31.5388 22.54 31.7802 22.54H33.6002C33.7193 22.54 33.8371 22.5164 33.9469 22.4706C34.0568 22.4247 34.1564 22.3575 34.2401 22.2728C34.3238 22.1882 34.39 22.0879 34.4346 21.9775C34.4792 21.8672 34.5015 21.749 34.5001 21.63L34.4602 11.65Z" fill="#DB256E"/>
</svg>
