<svg width="25" height="30" viewBox="0 0 25 30" fill="none" xmlns="http://www.w3.org/2000/svg">
<path d="M2.69008 11.08V27.27H21.9201V11.0699L2.69008 11.08ZM2.69008 8.68005H21.9201V3.29004H2.73012V8.68994L2.69008 8.68005ZM0.29006 3.29004C0.288743 2.97403 0.349848 2.66087 0.469869 2.36853C0.589891 2.07619 0.766531 1.81035 0.989523 1.58643C1.21251 1.3625 1.47747 1.18483 1.76931 1.0636C2.06114 0.942363 2.37407 0.880002 2.69008 0.880005H21.9201C22.2361 0.880002 22.549 0.942363 22.8408 1.0636C23.1327 1.18483 23.3976 1.3625 23.6206 1.58643C23.8436 1.81035 24.0203 2.07619 24.1403 2.36853C24.2603 2.66087 24.3214 2.97403 24.3201 3.29004V27.29C24.3201 27.9275 24.0675 28.5389 23.6177 28.9906C23.1679 29.4423 22.5575 29.6973 21.9201 29.7H2.73012C2.41411 29.7 2.10118 29.6376 1.80935 29.5164C1.51751 29.3951 1.25243 29.2175 1.02944 28.9935C0.806448 28.7696 0.62993 28.5039 0.509909 28.2115C0.389887 27.9192 0.328782 27.6061 0.330099 27.29L0.29006 3.29004ZM5.0801 15.88C5.0801 15.7224 5.1111 15.5664 5.17141 15.4208C5.23171 15.2752 5.32011 15.1429 5.43154 15.0315C5.54297 14.9201 5.67523 14.8317 5.82082 14.7714C5.96641 14.7111 6.12246 14.6801 6.28005 14.6801H7.48012C7.63771 14.6801 7.79364 14.7111 7.93923 14.7714C8.08482 14.8317 8.2172 14.9201 8.32863 15.0315C8.44006 15.1429 8.52846 15.2752 8.58877 15.4208C8.64907 15.5664 8.68007 15.7224 8.68007 15.88V17.08C8.68007 17.3982 8.55368 17.7035 8.32863 17.9286C8.10359 18.1536 7.79838 18.28 7.48012 18.28H6.28005C5.96179 18.28 5.65658 18.1536 5.43154 17.9286C5.2065 17.7035 5.0801 17.3982 5.0801 17.08V15.88ZM10.4801 15.88C10.4801 15.7224 10.5111 15.5664 10.5714 15.4208C10.6317 15.2752 10.7201 15.1429 10.8316 15.0315C10.943 14.9201 11.0753 14.8317 11.2208 14.7714C11.3664 14.7111 11.5225 14.6801 11.6801 14.6801H12.88C13.0376 14.6801 13.1937 14.7111 13.3393 14.7714C13.4848 14.8317 13.6171 14.9201 13.7285 15.0315C13.84 15.1429 13.9284 15.2752 13.9887 15.4208C14.049 15.5664 14.0801 15.7224 14.0801 15.88V17.08C14.0801 17.3982 13.9536 17.7035 13.7285 17.9286C13.5035 18.1536 13.1983 18.28 12.88 18.28H11.6801C11.3618 18.28 11.0566 18.1536 10.8316 17.9286C10.6065 17.7035 10.4801 17.3982 10.4801 17.08V15.88ZM15.88 15.88C15.88 15.7224 15.9112 15.5664 15.9715 15.4208C16.0318 15.2752 16.1202 15.1429 16.2316 15.0315C16.343 14.9201 16.4753 14.8317 16.6209 14.7714C16.7665 14.7111 16.9225 14.6801 17.0801 14.6801H18.2801C18.4376 14.6801 18.5937 14.7111 18.7393 14.7714C18.8849 14.8317 19.0171 14.9201 19.1286 15.0315C19.24 15.1429 19.3284 15.2752 19.3887 15.4208C19.449 15.5664 19.4801 15.7224 19.4801 15.88V17.08C19.4801 17.3982 19.3536 17.7035 19.1286 17.9286C18.9035 18.1536 18.5983 18.28 18.2801 18.28H17.0801C16.7618 18.28 16.4566 18.1536 16.2316 17.9286C16.0065 17.7035 15.88 17.3982 15.88 17.08V15.88ZM5.0801 21.88C5.0801 21.7224 5.1111 21.5664 5.17141 21.4208C5.23171 21.2752 5.32011 21.1429 5.43154 21.0315C5.54297 20.9201 5.67523 20.8317 5.82082 20.7714C5.96641 20.7111 6.12246 20.6801 6.28005 20.6801H7.48012C7.63771 20.6801 7.79364 20.7111 7.93923 20.7714C8.08482 20.8317 8.2172 20.9201 8.32863 21.0315C8.44006 21.1429 8.52846 21.2752 8.58877 21.4208C8.64907 21.5664 8.68007 21.7224 8.68007 21.88V23.08C8.68007 23.3982 8.55368 23.7035 8.32863 23.9286C8.10359 24.1536 7.79838 24.28 7.48012 24.28H6.28005C5.96179 24.28 5.65658 24.1536 5.43154 23.9286C5.2065 23.7035 5.0801 23.3982 5.0801 23.08V21.88ZM10.4801 21.88C10.4801 21.7224 10.5111 21.5664 10.5714 21.4208C10.6317 21.2752 10.7201 21.1429 10.8316 21.0315C10.943 20.9201 11.0753 20.8317 11.2208 20.7714C11.3664 20.7111 11.5225 20.6801 11.6801 20.6801H12.88C13.0376 20.6801 13.1937 20.7111 13.3393 20.7714C13.4848 20.8317 13.6171 20.9201 13.7285 21.0315C13.84 21.1429 13.9284 21.2752 13.9887 21.4208C14.049 21.5664 14.0801 21.7224 14.0801 21.88V23.08C14.0801 23.3982 13.9536 23.7035 13.7285 23.9286C13.5035 24.1536 13.1983 24.28 12.88 24.28H11.6801C11.3618 24.28 11.0566 24.1536 10.8316 23.9286C10.6065 23.7035 10.4801 23.3982 10.4801 23.08V21.88ZM15.88 21.88C15.88 21.7224 15.9112 21.5664 15.9715 21.4208C16.0318 21.2752 16.1202 21.1429 16.2316 21.0315C16.343 20.9201 16.4753 20.8317 16.6209 20.7714C16.7665 20.7111 16.9225 20.6801 17.0801 20.6801H18.2801C18.4376 20.6801 18.5937 20.7111 18.7393 20.7714C18.8849 20.8317 19.0171 20.9201 19.1286 21.0315C19.24 21.1429 19.3284 21.2752 19.3887 21.4208C19.449 21.5664 19.4801 21.7224 19.4801 21.88V23.08C19.4801 23.3982 19.3536 23.7035 19.1286 23.9286C18.9035 24.1536 18.5983 24.28 18.2801 24.28H17.0801C16.9225 24.28 16.7665 24.2489 16.6209 24.1886C16.4753 24.1283 16.343 24.04 16.2316 23.9286C16.1202 23.8172 16.0318 23.6848 15.9715 23.5392C15.9112 23.3936 15.88 23.2375 15.88 23.08V21.88Z" fill="#DB256E"/>
</svg>
