<svg width="61" height="80" viewBox="0 0 61 80" fill="none" xmlns="http://www.w3.org/2000/svg">
<path d="M41.5725 61.0261H51.8975L41.5725 71.3511V61.0261ZM14.0585 48.7241C12.6785 48.7961 11.4875 50.1181 11.5595 51.4981C11.6315 52.8781 12.9535 54.0681 14.3335 53.9961H32.7855C34.1795 54.0171 35.4595 52.7541 35.4595 51.3601C35.4595 49.9671 34.1795 48.7041 32.7855 48.7241H14.0585ZM14.0585 38.1801C12.6785 38.2521 11.4875 39.5731 11.5595 40.9531C11.6315 42.3331 12.9535 43.5241 14.3335 43.4521H45.9665C47.3595 43.4731 48.6405 42.2101 48.6405 40.8161C48.6405 39.4221 47.3595 38.1591 45.9665 38.1801H14.0585ZM14.0585 27.6351C12.6785 27.7071 11.4875 29.0291 11.5595 30.4091C11.6315 31.7891 12.9535 32.9801 14.3335 32.9081H45.9665C47.3595 32.9281 48.6405 31.6651 48.6405 30.2721C48.6405 28.8781 47.3595 27.6151 45.9665 27.6351H14.0585ZM14.0585 17.0911C12.6785 17.1631 11.4875 18.4841 11.5595 19.8641C11.6315 21.2441 12.9535 22.4351 14.3335 22.3631H45.9665C47.3595 22.3841 48.6405 21.1211 48.6405 19.7271C48.6405 18.3341 47.3595 17.0701 45.9665 17.0911H14.0585ZM5.54646 5.66812H54.7535V55.7541H38.6625C37.3755 55.8881 36.2945 57.0961 36.3015 58.3901V74.2071H5.54646V5.66812ZM2.63546 0.396126C1.34846 0.529129 0.267462 1.73813 0.273462 3.03213V76.8431C0.273462 78.2231 1.53046 79.4791 2.91046 79.4791H39.8155C40.5085 79.4721 41.1985 79.1801 41.6825 78.6821L59.2565 61.1091C59.7375 60.6241 60.0185 59.9521 60.0255 59.2691V3.03213C60.0255 1.65213 58.7695 0.396126 57.3895 0.396126H2.63546Z" fill="white"/>
</svg>
