<svg xmlns="http://www.w3.org/2000/svg" viewBox="0 0 40 34.29"><defs><style>.cls-1{fill:#db256e;}</style></defs><g id="Layer_2" data-name="Layer 2"><g id="Artwork"><path class="cls-1" d="M14.29,5.71a1.4,1.4,0,0,1,1.42-1.42h8.58a1.43,1.43,0,0,1,0,2.85H15.71a1.42,1.42,0,0,1-1.42-1.43Zm-1.43,5.72H27.14a1.43,1.43,0,0,0,0-2.86H12.86a1.43,1.43,0,0,0,0,2.86Zm0,4.28H27.14a1.43,1.43,0,1,0,0-2.85H12.86a1.43,1.43,0,1,0,0,2.85ZM40,14.1V30a4.3,4.3,0,0,1-4.29,4.29H4.29A4.3,4.3,0,0,1,0,30V14.1a4.26,4.26,0,0,1,2.32-3.8L5.65,8.57l0-4.13A4.38,4.38,0,0,1,9.93,0H30a4.3,4.3,0,0,1,4.29,4.29V8.54l3.39,1.76A4.26,4.26,0,0,1,40,14.1ZM37.14,30V15.26l-11.27,7,11.26,7.75s0,0,0-.05Zm-34.27.05L14.13,22.3l-11.27-7V30s0,0,0,.05Zm3,1.38H34.1L20.81,22.29a1.45,1.45,0,0,0-1.62,0ZM34.29,11.76v1.91L36,12.62ZM8.49,4.42l0,11,8.16,5.1h0a4.8,4.8,0,0,1,6.6,0l8.13-5.08V4.29A1.43,1.43,0,0,0,30,2.86H9.93A1.51,1.51,0,0,0,8.49,4.42ZM5.66,11.78,4,12.62l1.63,1Z"/></g></g></svg>