<svg width="93" height="75" viewBox="0 0 93 75" fill="none" xmlns="http://www.w3.org/2000/svg">

<path  d="M30.5403 40.0309L44.9303 54.4209C45.321 54.8023 45.8444 55.0173 46.3904 55.0209C46.9419 55.0205 47.4706 54.8011 47.8604 54.4109L62.2404 40.0309C63.4717 38.9195 64.456 37.5619 65.1296 36.046C65.8031 34.5301 66.1509 32.8897 66.1504 31.2309V31.2309C66.1548 28.9356 65.4948 26.6881 64.2499 24.7597C63.0051 22.8312 61.2286 21.3043 59.135 20.3633C57.0415 19.4222 54.7203 19.1073 52.4517 19.4565C50.1831 19.8056 48.0641 20.8039 46.3504 22.3309C44.0032 20.2238 40.9151 19.1354 37.7654 19.3051C34.6157 19.4748 31.6625 20.8888 29.5553 23.2359C27.4482 25.5831 26.3597 28.6712 26.5295 31.8208C26.6992 34.9705 28.1132 37.9238 30.4604 40.0309H30.5403ZM33.0503 25.7409C33.8378 24.9505 34.7868 24.3395 35.8322 23.9496C36.8776 23.5596 37.9949 23.4 39.1077 23.4817C40.2205 23.5633 41.3025 23.8843 42.2798 24.4226C43.2571 24.961 44.1067 25.704 44.7704 26.6009C44.9618 26.8614 45.2118 27.0731 45.5002 27.2191C45.7885 27.365 46.1071 27.4411 46.4303 27.4411C46.7535 27.4411 47.0723 27.365 47.3606 27.2191C47.649 27.0731 47.899 26.8614 48.0904 26.6009C49.0654 25.2927 50.4276 24.3246 51.9837 23.8339C53.5398 23.3432 55.2109 23.3548 56.76 23.8672C58.3092 24.3795 59.6578 25.3665 60.6145 26.6882C61.5713 28.0099 62.0876 29.5993 62.0904 31.2309V31.2309C62.0922 32.3358 61.8565 33.4282 61.3993 34.4341C60.9421 35.4399 60.274 36.3358 59.4403 37.0609L59.3504 37.1609L46.4704 50.0809L33.4704 37.1509L33.3804 37.0609C32.5798 36.3625 31.9315 35.5066 31.476 34.5467C31.0205 33.5868 30.7675 32.5433 30.7328 31.4814C30.6981 30.4195 30.8824 29.3618 31.2742 28.3742C31.666 27.3866 32.2571 26.4902 33.0104 25.7409H33.0503Z" fill="white"/>
<path  d="M70.66 34.8411C71.1692 35.0449 71.7386 35.0383 72.243 34.8227C72.7474 34.6071 73.1456 34.2001 73.3501 33.6911L77.1301 24.2811C79.8436 30.678 80.4749 37.7667 78.9349 44.5426C77.3949 51.3185 73.7615 57.4378 68.5496 62.0335C63.3378 66.6292 56.8117 69.4681 49.8963 70.1479C42.981 70.8277 36.0271 69.3139 30.0201 65.8211C29.5454 65.544 28.9799 65.4667 28.4482 65.6064C27.9165 65.7462 27.4622 66.0914 27.185 66.5661C26.9079 67.0408 26.8307 67.6062 26.9704 68.1379C27.1101 68.6695 27.4553 69.1239 27.93 69.4011C34.662 73.306 42.4478 75.0049 50.1945 74.2595C57.9413 73.514 65.2601 70.3615 71.1239 65.2445C76.9876 60.1275 81.1021 53.3028 82.8895 45.7283C84.6769 38.1538 84.0476 30.2098 81.0901 23.0111L89.9901 26.5911C90.2422 26.6928 90.5119 26.744 90.7838 26.7415C91.0557 26.7391 91.3244 26.683 91.5747 26.5767C91.8249 26.4704 92.0518 26.3158 92.2423 26.1218C92.4328 25.9278 92.5832 25.6982 92.685 25.4461C92.7868 25.194 92.838 24.9242 92.8355 24.6523C92.8331 24.3805 92.7771 24.1117 92.6707 23.8615C92.5644 23.6112 92.4098 23.3843 92.2158 23.1938C92.0218 23.0033 91.7921 22.8529 91.54 22.7511L77.7401 17.2111C77.2308 17.0016 76.6594 17.0016 76.1501 17.2111C75.8997 17.315 75.6731 17.4688 75.484 17.6631C75.2949 17.8573 75.1472 18.088 75.05 18.3411L69.4701 32.1511C69.3688 32.4056 69.3194 32.6777 69.3246 32.9515C69.3297 33.2254 69.3894 33.4954 69.5002 33.7459C69.611 33.9964 69.7707 34.2223 69.9698 34.4103C70.169 34.5984 70.4036 34.7448 70.66 34.8411V34.8411Z" fill="white"/>
<path  d="M1.47036 52.421L15.6603 56.851C15.9206 56.9312 16.1942 56.9592 16.4654 56.9335C16.7365 56.9077 16.9998 56.8288 17.2404 56.701C17.4801 56.5772 17.6922 56.4062 17.864 56.1982C18.0359 55.9903 18.1639 55.7497 18.2404 55.491L22.6703 41.301C22.7511 41.0384 22.7793 40.7624 22.7534 40.4888C22.7276 40.2153 22.648 39.9495 22.5194 39.7067C22.3908 39.4638 22.2157 39.2487 22.0039 39.0736C21.7922 38.8985 21.5479 38.7668 21.2853 38.686C21.0227 38.6053 20.7467 38.577 20.4732 38.6029C20.1996 38.6288 19.9339 38.7083 19.6911 38.8369C19.4482 38.9655 19.2331 39.1407 19.058 39.3525C18.8829 39.5642 18.7511 39.8084 18.6703 40.071L15.7804 49.331C13.2526 42.934 12.7803 35.9085 14.4293 29.2308C16.0784 22.5531 19.7668 16.555 24.9818 12.0702C30.1969 7.58534 36.6796 4.83655 43.529 4.20587C50.3783 3.57518 57.254 5.09393 63.2003 8.55102C63.4353 8.70855 63.7 8.81629 63.9782 8.86755C64.2563 8.91881 64.542 8.91251 64.8176 8.84906C65.0933 8.7856 65.353 8.66631 65.5807 8.49859C65.8085 8.33087 65.9995 8.11828 66.1419 7.8739C66.2843 7.62951 66.375 7.35853 66.4086 7.07769C66.4422 6.79685 66.4179 6.5121 66.3372 6.24102C66.2565 5.96994 66.121 5.71829 65.9392 5.50158C65.7575 5.28487 65.5333 5.10769 65.2804 4.98101C58.5469 1.0974 50.7669 -0.581819 43.031 0.178706C35.2952 0.939231 27.9912 4.10138 22.143 9.22192C16.2947 14.3425 12.1953 21.1647 10.4195 28.7323C8.64363 36.2999 9.28036 44.2335 12.2404 51.421L2.72036 48.421C2.45772 48.3389 2.18143 48.3094 1.90737 48.3341C1.63331 48.3588 1.36683 48.4372 1.12307 48.5649C0.879319 48.6926 0.663058 48.867 0.48672 49.0782C0.310382 49.2895 0.177439 49.5334 0.0953628 49.796C0.0132866 50.0587 -0.0162322 50.3349 0.00844869 50.6089C0.0331296 50.883 0.111481 51.1496 0.239162 51.3933C0.366842 51.6371 0.541347 51.8533 0.752589 52.0296C0.963831 52.2059 1.20772 52.3389 1.47036 52.421V52.421Z" fill="white"/>

</svg>
