<svg xmlns="http://www.w3.org/2000/svg" viewBox="0 0 90.27 85.78"><defs><style>.cls-1{fill:#fff;}</style></defs><g id="Layer_2" data-name="Layer 2"><g id="Artwork"><path class="cls-1" d="M70.34,54.92a2.19,2.19,0,0,1-2.19-2.19c0-3.65-5.24-9.25-13.7-11.92A2.19,2.19,0,0,1,52.94,39,2.16,2.16,0,0,1,54,36.85a17.49,17.49,0,1,0-17.93,0,2.19,2.19,0,0,1-.46,4c-8.48,2.68-13.72,8.27-13.72,11.92a2.19,2.19,0,1,1-4.37,0c0-5.39,5.24-11.16,12.91-14.62a21.65,21.65,0,0,1-7.26-16.25,21.86,21.86,0,1,1,43.72,0,21.63,21.63,0,0,1-7.27,16.25c7.67,3.46,12.91,9.23,12.91,14.62a2.18,2.18,0,0,1-2.18,2.19ZM22.76,85a4,4,0,0,0,1.59-3.91l-.85-4.91,3.57-3.47a4,4,0,0,0-2.21-6.82l-4.93-.71-2.21-4.47a4,4,0,0,0-3.58-2.23h0a4,4,0,0,0-3.58,2.23L8.35,65.19l-4.92.71a4,4,0,0,0-2.24,6.8l3.5,3.49L3.94,81.1a4,4,0,0,0,5.8,4.21L14.15,83l4.41,2.32a3.94,3.94,0,0,0,1.86.46A3.89,3.89,0,0,0,22.76,85ZM8.25,81.8h0Zm1.87-12.46a2.18,2.18,0,0,0,1.64-1.19l2.38-4.82,2.38,4.82a2.18,2.18,0,0,0,1.65,1.19l5.31.77-3.84,3.75A2.19,2.19,0,0,0,19,75.8l.91,5.29-4.76-2.5a2.15,2.15,0,0,0-2,0L8.36,81.1l.81-5.35a2.17,2.17,0,0,0-.61-1.87L4.79,70.12Zm-5.86.24h0ZM53.64,85a4,4,0,0,0,1.59-3.91l-.84-4.91L58,72.72a4,4,0,0,0-2.21-6.82l-4.93-.72L48.6,60.72a4,4,0,0,0-7.16,0l-2.21,4.46-4.92.72a4,4,0,0,0-2.23,6.8l3.49,3.49-.75,4.91a4,4,0,0,0,5.8,4.21L45,83l4.41,2.32a3.93,3.93,0,0,0,4.2-.3ZM39.13,81.79h0ZM41,69.34a2.18,2.18,0,0,0,1.65-1.2L45,63.33l2.38,4.81a2.17,2.17,0,0,0,1.65,1.2l5.31.77-3.84,3.75a2.17,2.17,0,0,0-.63,1.93l.91,5.3L46,78.59a2.15,2.15,0,0,0-2,0L39.24,81.1l.81-5.34a2.18,2.18,0,0,0-.61-1.88l-3.77-3.76Zm-5.86.24h0ZM84.74,85a4,4,0,0,0,1.59-3.91l-.84-4.91,3.57-3.47a4,4,0,0,0-2.21-6.82l-4.93-.72-2.21-4.46a4,4,0,0,0-7.16,0l-2.21,4.46-4.93.72a4,4,0,0,0-2.23,6.79l3.49,3.5-.75,4.91a4,4,0,0,0,5.81,4.21L76.14,83l4.41,2.32a4,4,0,0,0,1.86.46A4,4,0,0,0,84.74,85Zm-14.5-3.22h0ZM72.1,69.34a2.17,2.17,0,0,0,1.65-1.2l2.38-4.81,2.38,4.81a2.15,2.15,0,0,0,1.64,1.2l5.32.77-3.85,3.75A2.19,2.19,0,0,0,81,75.79l.91,5.3-4.76-2.5a2.15,2.15,0,0,0-2,0L70.34,81.1l.81-5.34a2.18,2.18,0,0,0-.61-1.88l-3.77-3.76Zm-5.85.24h0Z"/></g></g></svg>