<svg width="40" height="40" viewBox="0 0 40 40" fill="none" xmlns="http://www.w3.org/2000/svg">
<path d="M24.6057 39.6445V25.0715H29.1622L29.8275 19.3197H24.5653C24.4993 18.0096 24.4993 16.6968 24.5653 15.3867C24.6661 14.5026 25.4121 14.1164 26.2992 14.1164H29.6864V8.14101C27.1016 8.14339 24.5193 8.30627 21.9544 8.62879C19.1015 9.15723 17.7003 11.2709 17.5994 14.3501C17.549 15.9558 17.5994 17.5717 17.5994 19.3095H14.3433V24.9901H17.4986V40C9.63558 39.5732 0.492247 32.1649 0.00836663 20.8237C-0.140062 15.6405 1.69114 10.5978 5.124 6.73624C8.55685 2.87471 13.3293 0.489017 18.4563 0.0718729C21.1063 -0.155218 23.7745 0.157138 26.3024 0.99036C28.8302 1.82358 31.1661 3.16088 33.1711 4.92234C35.1761 6.68379 36.8093 8.8336 37.9736 11.2441C39.1379 13.6545 39.8096 16.2763 39.9487 18.9537C40.7149 29.7563 32.7711 38.2217 24.6057 39.6445Z" fill="white"/>
</svg>
