<svg width="24" height="24" viewBox="0 0 24 24" fill="none" xmlns="http://www.w3.org/2000/svg">
<path fill-rule="evenodd" clip-rule="evenodd" d="M0.832158 13.6854H2.73216V21.3954C2.73476 21.62 2.82514 21.8347 2.98399 21.9935C3.14284 22.1524 3.35753 22.2428 3.58216 22.2454H9.27215C9.36299 22.2534 9.45405 22.2324 9.53216 22.1854V15.0554H14.2422V22.2454H19.7922C20.0168 22.2428 20.2315 22.1524 20.3903 21.9935C20.5492 21.8347 20.6396 21.62 20.6422 21.3954V13.6854H23.0022C23.1663 13.6793 23.3251 13.6259 23.4594 13.5315C23.5938 13.4371 23.6979 13.3058 23.7593 13.1535C23.8206 13.0012 23.8365 12.8344 23.8051 12.6732C23.7737 12.5121 23.6963 12.3635 23.5822 12.2454L12.7322 1.24536C12.6558 1.16766 12.5648 1.10598 12.4644 1.06384C12.3639 1.02171 12.2561 1 12.1472 1C12.0382 1 11.9304 1.02171 11.83 1.06384C11.7295 1.10598 11.6385 1.16766 11.5622 1.24536L0.252156 12.2454C0.133433 12.3617 0.0518857 12.5106 0.0178272 12.6733C-0.0162313 12.836 -0.00126881 13.0051 0.0608265 13.1592C0.122922 13.3134 0.229355 13.4457 0.366658 13.5394C0.503961 13.633 0.665962 13.6838 0.832158 13.6854V13.6854Z" fill="white"/>
</svg>
