<svg width="40" height="40" viewBox="0 0 40 40" fill="none" xmlns="http://www.w3.org/2000/svg">
<path d="M39.9996 20.0807C39.9836 24.032 38.7976 27.89 36.5913 31.1679C34.3849 34.4459 31.257 36.9968 27.6023 38.4988C23.9476 40.0008 19.9298 40.3864 16.0561 39.6073C12.1824 38.8281 8.6263 36.919 5.83652 34.1208C3.04675 31.3225 1.14834 27.7606 0.380883 23.8846C-0.386578 20.0085 0.011305 15.992 1.5243 12.3418C3.03729 8.6916 5.5976 5.57153 8.88214 3.37503C12.1667 1.17852 16.0283 0.00414167 19.9795 0.000126342C22.6163 -0.0092575 25.2288 0.504173 27.666 1.51075C30.1031 2.51732 32.3165 3.99709 34.1782 5.86443C36.0399 7.73176 37.5129 9.9496 38.5121 12.3898C39.5113 14.8299 40.0169 17.4439 39.9996 20.0807ZM19.8384 6.45164H13.034C12.1862 6.3896 11.3349 6.50962 10.5374 6.80382C9.73983 7.09803 9.01447 7.55967 8.41004 8.15743C7.80561 8.75518 7.33609 9.4753 7.03304 10.2695C6.72999 11.0638 6.60042 11.9137 6.65303 12.7621C6.65303 17.2581 6.65303 21.7508 6.65303 26.2401C6.65303 30.2723 9.09252 32.7017 13.1348 32.7118C17.5904 32.7118 22.0427 32.7118 26.4916 32.7118C30.4331 32.7118 32.8625 30.3731 32.9129 26.4416C32.9734 21.7844 32.9633 17.127 32.9129 12.4698C32.9405 11.6594 32.7995 10.8522 32.4989 10.0992C32.1982 9.34623 31.7446 8.66397 31.1665 8.09541C30.5885 7.52685 29.8987 7.08433 29.1408 6.7962C28.383 6.50806 27.5735 6.38043 26.7638 6.42137L19.8384 6.45164Z" fill="white"/>
<path d="M19.8387 30.0405H13.0344C12.539 30.0936 12.038 30.0359 11.5678 29.8714C11.0975 29.7069 10.6698 29.4398 10.3156 29.0895C9.96137 28.7391 9.6896 28.3143 9.51995 27.8459C9.35031 27.3775 9.28705 26.8772 9.33477 26.3813C9.33477 21.8585 9.33477 17.3289 9.33477 12.7926C9.33477 10.3632 10.6251 9.0729 13.0847 9.06282C17.621 9.06282 22.1539 9.06282 26.6834 9.06282C27.1801 9.01589 27.6809 9.08053 28.1493 9.25208C28.6177 9.42362 29.0418 9.69758 29.3906 10.0542C29.7395 10.4107 30.0042 10.841 30.1654 11.313C30.3267 11.785 30.3803 12.2871 30.3225 12.7825C30.3225 17.265 30.3225 21.7544 30.3225 26.2504C30.3225 28.7605 29.0322 30.0304 26.502 30.0405H19.8387ZM19.8387 26.4015C21.1808 26.3995 22.4922 26.0001 23.6075 25.2536C24.7229 24.5072 25.5921 23.447 26.1057 22.207C26.6193 20.9671 26.7542 19.603 26.4933 18.2865C26.2325 16.97 25.5876 15.7604 24.64 14.81C23.6924 13.8596 22.4846 13.2109 21.1689 12.9462C19.8532 12.6814 18.4886 12.8123 17.2472 13.3222C16.0057 13.8321 14.9431 14.6983 14.1934 15.8114C13.4436 16.9245 13.0403 18.2348 13.0344 19.5769C13.029 20.4729 13.2012 21.361 13.541 22.1901C13.8809 23.0191 14.3815 23.7727 15.0142 24.4073C15.6468 25.0418 16.3989 25.5448 17.227 25.8871C18.055 26.2294 18.9427 26.4042 19.8387 26.4015ZM28.5988 12.9135C28.6047 12.5697 28.5084 12.2321 28.322 11.9433C28.1356 11.6544 27.8676 11.4275 27.5519 11.2913C27.2363 11.1552 26.8873 11.1157 26.5493 11.1784C26.2112 11.241 25.8995 11.4028 25.6536 11.643C25.4077 11.8833 25.2387 12.1911 25.1682 12.5276C25.0977 12.864 25.1287 13.2139 25.2575 13.5327C25.3862 13.8514 25.6068 14.1247 25.8912 14.3178C26.1757 14.5109 26.5111 14.6152 26.8548 14.6173C27.3104 14.6174 27.748 14.439 28.0739 14.1206C28.3998 13.8022 28.5882 13.369 28.5988 12.9135Z" fill="white"/>
<path d="M23.9714 19.6677C23.9668 20.2117 23.8551 20.7495 23.6426 21.2504C23.4301 21.7513 23.121 22.2053 22.733 22.5868C22.345 22.9682 21.8857 23.2696 21.3812 23.4735C20.8768 23.6774 20.3371 23.7801 19.793 23.7755C19.249 23.7708 18.7111 23.6592 18.2102 23.4467C17.7093 23.2342 17.2552 22.9251 16.8738 22.5371C16.4923 22.149 16.191 21.6896 15.9871 21.1852C15.7832 20.6807 15.6806 20.1411 15.6852 19.597C15.6838 19.0518 15.7909 18.5116 16.0001 18.0081C16.2094 17.5047 16.5166 17.0478 16.904 16.6641C17.2914 16.2805 17.7513 15.9778 18.2567 15.7735C18.7622 15.5691 19.3033 15.4673 19.8485 15.474C20.9501 15.4872 22.0017 15.9357 22.7741 16.7212C23.5464 17.5068 23.9768 18.566 23.9714 19.6677Z" fill="white"/>
</svg>
