<svg width="40" height="40" viewBox="0 0 40 40" fill="none" xmlns="http://www.w3.org/2000/svg">
<path d="M39.9995 20.0809C39.9835 24.0313 38.798 27.8884 36.5925 31.1659C34.387 34.4433 31.2603 36.9942 27.6068 38.4967C23.9533 39.9993 19.9366 40.3864 16.0635 39.6088C12.1903 38.8313 8.63415 36.924 5.84359 34.1278C3.05303 31.3316 1.15306 27.7716 0.383334 23.8969C-0.386395 20.0221 0.00859876 16.0064 1.5185 12.3559C3.0284 8.70537 5.58557 5.58386 8.86744 3.38494C12.1493 1.18602 16.0089 0.00826718 19.9593 0.000258261C22.5982 -0.0131699 25.2135 0.497174 27.6536 1.50207C30.0937 2.50696 32.31 3.98631 34.1741 5.85419C36.0382 7.72207 37.513 9.94136 38.513 12.3835C39.513 14.8256 40.0182 17.442 39.9995 20.0809ZM21.2112 29.5507C21.2112 26.9358 21.2112 24.3918 21.2112 21.8476C21.1988 21.3146 21.253 20.7821 21.3727 20.2625C21.5135 19.696 21.8412 19.1936 22.3029 18.8364C22.7645 18.4791 23.3331 18.288 23.9168 18.2939C24.5021 18.276 25.0741 18.4706 25.5269 18.8418C25.9798 19.213 26.2829 19.7356 26.3802 20.313C26.5217 21.082 26.5826 21.8637 26.562 22.6452C26.562 24.937 26.562 27.2288 26.562 29.5408H31.7815C31.7815 25.977 32.0238 22.4735 31.7108 19.0005C31.4382 15.9718 28.9547 14.2252 25.8855 14.2454C25.0197 14.2418 24.1627 14.4197 23.3698 14.7675C22.5769 15.1152 21.8656 15.6252 21.2818 16.2646L21.1304 14.4877H15.9613V29.5307L21.2112 29.5507ZM8.28852 14.4068V29.4903H12.9023V14.4271L8.28852 14.4068ZM10.449 12.4988C10.8179 12.5291 11.189 12.4845 11.5402 12.3677C11.8914 12.2509 12.2154 12.0642 12.4926 11.819C12.7698 11.5739 12.9946 11.2751 13.1535 10.9408C13.3124 10.6066 13.4021 10.2436 13.4172 9.87381C13.4247 9.51265 13.3575 9.15387 13.22 8.81985C13.0824 8.48584 12.8774 8.1839 12.6177 7.93277C12.358 7.68164 12.0493 7.48678 11.7109 7.36044C11.3725 7.2341 11.0116 7.17897 10.6509 7.1985C10.2827 7.14908 9.90831 7.17684 9.55145 7.28009C9.19459 7.38333 8.86315 7.5598 8.57823 7.79819C8.2933 8.03657 8.06115 8.33178 7.89655 8.66482C7.73195 8.99786 7.63851 9.36144 7.62219 9.73258C7.61219 10.1047 7.67878 10.4748 7.81783 10.8201C7.95688 11.1653 8.16542 11.4784 8.43051 11.7397C8.69559 12.001 9.01156 12.205 9.3588 12.3391C9.70603 12.4732 10.0771 12.5344 10.449 12.519V12.4988Z" fill="white"/>
</svg>
