<svg width="384" height="64" viewBox="0 0 384 64" fill="none" xmlns="http://www.w3.org/2000/svg">
<path d="M30.5942 64C47.4909 64 61.1883 49.6732 61.1883 32.0001C61.1883 14.3271 47.4909 0 30.5942 0C13.6975 0 0 14.3271 0 32.0001C0 49.6732 13.6975 64 30.5942 64Z" fill="#7BB82B"/>
<path opacity="0.87" d="M71.3188 64C88.2155 64 101.913 49.6732 101.913 32.0001C101.913 14.3271 88.2155 0 71.3188 0C54.4221 0 40.7246 14.3271 40.7246 32.0001C40.7246 49.6732 54.4221 64 71.3188 64Z" fill="#DB236E"/>
<path opacity="0.9" d="M113.401 64C130.298 64 143.995 49.6732 143.995 32.0001C143.995 14.3271 130.298 0 113.401 0C96.5044 0 82.8069 14.3271 82.8069 32.0001C82.8069 49.6732 96.5044 64 113.401 64Z" fill="#3768AF"/>
<path d="M165.603 22.0562H160.599C160.454 22.0562 160.316 21.997 160.212 21.8911C160.109 21.7852 160.05 21.6412 160.047 21.4901V20.6142C160.05 20.463 160.109 20.3192 160.212 20.2134C160.316 20.1075 160.454 20.048 160.599 20.048H172.792C172.935 20.048 173.073 20.1077 173.174 20.2139C173.276 20.32 173.333 20.464 173.333 20.6142V21.4901C173.333 21.6402 173.276 21.7842 173.174 21.8903C173.073 21.9965 172.935 22.0562 172.792 22.0562H167.829V40.5235C167.821 40.6739 167.761 40.8161 167.659 40.9227C167.557 41.0292 167.421 41.0923 167.277 41.1H166.185C166.042 41.0921 165.907 41.0287 165.807 40.9219C165.707 40.8151 165.648 40.673 165.643 40.5235L165.603 22.0562Z" fill="white"/>
<path d="M167.237 42.4247H166.144C165.664 42.4191 165.205 42.217 164.865 41.8617C164.525 41.5063 164.332 41.026 164.327 40.5235V23.3806H160.599C160.119 23.3806 159.658 23.1818 159.318 22.8275C158.977 22.4733 158.784 21.9924 158.782 21.4901V20.6142C158.784 20.1118 158.977 19.6309 159.318 19.2767C159.658 18.9225 160.119 18.7236 160.599 18.7236H172.792C173.271 18.7236 173.731 18.9229 174.07 19.2775C174.409 19.632 174.6 20.1128 174.6 20.6142V21.4901C174.6 21.9915 174.409 22.4722 174.07 22.8267C173.731 23.1813 173.271 23.3806 172.792 23.3806H169.055V40.5235C169.049 41.026 168.856 41.5063 168.516 41.8617C168.177 42.217 167.717 42.4191 167.237 42.4247Z" fill="white"/>
<path d="M176.846 20.6142C176.846 20.464 176.903 20.32 177.004 20.2139C177.106 20.1077 177.243 20.048 177.387 20.048H188.722C188.865 20.048 189.003 20.1077 189.105 20.2139C189.206 20.32 189.263 20.464 189.263 20.6142V21.4901C189.263 21.6402 189.206 21.7842 189.105 21.8903C189.003 21.9965 188.865 22.0562 188.722 22.0562H179.062V29.3938H187.323C187.466 29.4017 187.601 29.4654 187.701 29.5722C187.801 29.6789 187.859 29.8211 187.864 29.9706V30.8465C187.864 30.9967 187.807 31.1406 187.706 31.2468C187.604 31.353 187.466 31.4126 187.323 31.4126H179.062V39.0921H188.732C188.877 39.0949 189.014 39.1569 189.115 39.2647C189.217 39.3726 189.273 39.5178 189.273 39.6689V40.5341C189.273 40.6853 189.217 40.8302 189.115 40.9381C189.014 41.0459 188.877 41.1079 188.732 41.1107H177.397C177.253 41.1079 177.115 41.0459 177.014 40.9381C176.913 40.8302 176.856 40.6853 176.856 40.5341L176.846 20.6142Z" fill="white"/>
<path d="M188.722 42.4247H177.387C176.905 42.4247 176.443 42.2242 176.102 41.8677C175.761 41.5112 175.569 41.0277 175.569 40.5235V20.6142C175.572 20.1118 175.765 19.6309 176.105 19.2767C176.446 18.9225 176.907 18.7236 177.387 18.7236H188.722C189.201 18.7236 189.661 18.9229 190 19.2775C190.339 19.632 190.529 20.1128 190.529 20.6142V21.4901C190.529 21.9915 190.339 22.4722 190 22.8267C189.661 23.1813 189.201 23.3806 188.722 23.3806H180.328V28.0694H187.313C187.791 28.0777 188.248 28.281 188.586 28.636C188.923 28.9911 189.115 29.4699 189.12 29.9706V30.8465C189.12 31.3479 188.93 31.8287 188.591 32.1832C188.252 32.5377 187.792 32.7371 187.313 32.7371H180.328V37.757H188.722C189.202 37.7598 189.662 37.9614 190.001 38.3177C190.339 38.6739 190.529 39.1559 190.529 39.6582V40.5235C190.529 41.0258 190.339 41.5078 190.001 41.864C189.662 42.2203 189.202 42.4219 188.722 42.4247Z" fill="white"/>
<path d="M190.846 40.6195L199.587 20.3793C199.627 20.2783 199.695 20.1926 199.783 20.1334C199.87 20.0742 199.973 20.0443 200.077 20.0481H200.363C200.467 20.0472 200.569 20.0782 200.656 20.137C200.743 20.1959 200.812 20.28 200.853 20.3793L209.533 40.6195C209.575 40.7038 209.595 40.7985 209.591 40.8935C209.586 40.9886 209.557 41.0805 209.507 41.16C209.457 41.2395 209.388 41.3037 209.306 41.3457C209.225 41.3878 209.134 41.4062 209.043 41.3992H207.9C207.796 41.4015 207.693 41.3713 207.606 41.3123C207.519 41.2533 207.45 41.1683 207.409 41.0683L205.275 36.1015H195.063L192.96 41.0683C192.919 41.1683 192.851 41.2533 192.763 41.3123C192.676 41.3713 192.574 41.4015 192.47 41.3992H191.316C191.226 41.4056 191.136 41.3864 191.055 41.3436C190.974 41.3008 190.906 41.2361 190.858 41.1561C190.81 41.0762 190.784 40.9841 190.781 40.8896C190.779 40.7952 190.802 40.7017 190.846 40.6195ZM204.499 34.211C203.09 30.9319 201.711 27.6209 200.302 24.3418H200.077L195.87 34.211H204.499Z" fill="white"/>
<path d="M209.044 42.7234H207.9C207.542 42.7246 207.192 42.6146 206.894 42.4074C206.595 42.2001 206.363 41.9051 206.225 41.5594L204.459 37.4257H195.891L194.135 41.6021C193.995 41.9381 193.763 42.2236 193.469 42.423C193.175 42.6224 192.831 42.7268 192.48 42.7234H191.316C191.011 42.7287 190.71 42.6532 190.44 42.5038C190.171 42.3544 189.941 42.1361 189.774 41.8691C189.613 41.6019 189.519 41.2959 189.501 40.9802C189.483 40.6645 189.542 40.3492 189.672 40.0639L198.464 19.8664C198.612 19.5429 198.846 19.2705 199.137 19.0813C199.429 18.892 199.766 18.7938 200.109 18.7983H200.394C200.734 18.7978 201.067 18.898 201.354 19.087C201.641 19.276 201.872 19.5462 202.018 19.8664L210.718 40.1601C210.849 40.4436 210.908 40.7572 210.89 41.0712C210.872 41.3852 210.778 41.6891 210.616 41.9544C210.437 42.2103 210.199 42.4151 209.924 42.5495C209.649 42.6839 209.346 42.7436 209.044 42.7234ZM191.857 40.502C191.853 40.5231 191.853 40.5447 191.857 40.5658V40.502ZM208.574 40.502V40.5658V40.502ZM197.872 32.9612H202.549L201.262 29.917L200.19 27.4072L197.872 32.9612ZM199.863 23.0921H200.65L200.251 22.1734L199.863 23.0921Z" fill="white"/>
<path d="M221.267 20.0481C223.842 20.0165 226.33 21.0181 228.221 22.8467C228.276 22.8997 228.32 22.964 228.35 23.0357C228.38 23.1074 228.396 23.1848 228.396 23.2631C228.396 23.3414 228.38 23.4188 228.35 23.4905C228.32 23.5622 228.276 23.6268 228.221 23.6798L227.445 24.4916C227.22 24.8013 226.985 24.7693 226.699 24.4916C225.19 23.0666 223.238 22.262 221.205 22.2271C219.012 22.2271 216.908 23.1387 215.357 24.7612C213.805 26.3837 212.934 28.5842 212.934 30.8787C212.934 33.1732 213.805 35.3737 215.357 36.9962C216.908 38.6187 219.012 39.5301 221.205 39.5301C222.219 39.5493 223.225 39.3593 224.168 38.9707C225.111 38.5822 225.971 38.0028 226.699 37.2659C226.745 37.2095 226.802 37.1641 226.867 37.1331C226.931 37.1021 227.001 37.0862 227.072 37.0862C227.143 37.0862 227.213 37.1021 227.277 37.1331C227.342 37.1641 227.399 37.2095 227.445 37.2659L228.108 37.96C228.211 38.068 228.268 38.214 228.268 38.366C228.268 38.518 228.211 38.6638 228.108 38.7718C226.256 40.6028 223.815 41.6429 221.267 41.6876C219.88 41.7332 218.499 41.487 217.205 40.9635C215.912 40.44 214.732 39.6498 213.736 38.6401C212.739 37.6304 211.947 36.4217 211.407 35.0856C210.866 33.7496 210.587 32.3134 210.587 30.8625C210.587 29.4116 210.866 27.9755 211.407 26.6395C211.947 25.3034 212.739 24.0947 213.736 23.085C214.732 22.0753 215.912 21.2854 217.205 20.7619C218.499 20.2383 219.88 19.9919 221.267 20.0375V20.0481Z" fill="white"/>
<path d="M221.267 43.0227C219.712 43.0709 218.164 42.7926 216.715 42.2037C215.265 41.6148 213.943 40.7274 212.828 39.5945C211.712 38.4615 210.825 37.106 210.219 35.6079C209.613 34.1099 209.301 32.4998 209.301 30.8732C209.301 29.2467 209.613 27.6369 210.219 26.1388C210.825 24.6408 211.712 23.2849 212.828 22.152C213.943 21.019 215.265 20.1319 216.715 19.5431C218.164 18.9542 219.712 18.6755 221.267 18.7237C224.144 18.6861 226.927 19.7978 229.048 21.832C229.234 22.0051 229.385 22.2157 229.491 22.4514C229.598 22.687 229.658 22.9427 229.667 23.2031C229.677 23.4635 229.636 23.7232 229.547 23.9667C229.458 24.2101 229.323 24.4321 229.15 24.6196L228.374 25.4314C228.234 25.6098 228.06 25.7554 227.863 25.8585C227.666 25.9616 227.45 26.0199 227.23 26.0296C226.967 26.0388 226.705 25.987 226.463 25.878C226.221 25.7691 226.006 25.6056 225.831 25.3993C224.558 24.2298 222.93 23.5712 221.236 23.5408C219.381 23.5408 217.602 24.3117 216.29 25.6838C214.978 27.0559 214.241 28.9169 214.241 30.8573C214.241 32.7978 214.978 34.6588 216.29 36.0309C217.602 37.403 219.381 38.1736 221.236 38.1736C222.1 38.1976 222.959 38.0388 223.763 37.7065C224.567 37.3743 225.298 36.8758 225.913 36.2405C226.081 36.0778 226.278 35.9514 226.493 35.8687C226.708 35.7859 226.936 35.7485 227.165 35.7584C227.393 35.7683 227.618 35.8252 227.826 35.9263C228.033 36.0274 228.219 36.1705 228.374 36.3472L229.038 37.0309C229.193 37.177 229.318 37.3544 229.406 37.5527C229.494 37.751 229.542 37.9658 229.548 38.1843C229.567 38.4661 229.529 38.7489 229.435 39.014C229.342 39.2791 229.196 39.5208 229.007 39.7225C226.911 41.7949 224.15 42.972 221.267 43.0227ZM227.21 38.8573C227.256 38.922 227.311 38.9794 227.373 39.0281L227.21 38.8573ZM226.577 23.5943L226.505 23.6691L226.577 23.5943Z" fill="white"/>
<path d="M232.449 20.6142C232.454 20.4639 232.514 20.3215 232.617 20.2162C232.719 20.1109 232.856 20.0507 233 20.048H234.113C234.258 20.048 234.396 20.1075 234.5 20.2134C234.603 20.3192 234.662 20.463 234.665 20.6142V29.3938H246.337V20.6142C246.339 20.463 246.399 20.3192 246.502 20.2134C246.605 20.1075 246.744 20.048 246.888 20.048H248.011C248.153 20.0533 248.288 20.1148 248.388 20.2199C248.489 20.3249 248.547 20.4657 248.553 20.6142V40.5235C248.548 40.673 248.489 40.8151 248.389 40.9219C248.289 41.0287 248.154 41.0921 248.011 41.1H246.888C246.742 41.1 246.602 41.0395 246.498 40.9313C246.395 40.8231 246.337 40.6764 246.337 40.5235V31.4126H234.665V40.5235C234.665 40.6764 234.607 40.8231 234.503 40.9313C234.4 41.0395 234.259 41.1 234.113 41.1H233C232.856 41.0947 232.718 41.0323 232.616 40.9253C232.514 40.8183 232.454 40.6747 232.449 40.5235V20.6142Z" fill="white"/>
<path d="M248.011 42.4247H246.888C246.406 42.4247 245.943 42.2242 245.602 41.8677C245.261 41.5112 245.07 41.0277 245.07 40.5235V32.7371H235.931V40.5235C235.931 41.0277 235.739 41.5112 235.398 41.8677C235.057 42.2242 234.595 42.4247 234.113 42.4247H233C232.519 42.4191 232.06 42.217 231.72 41.8617C231.381 41.5063 231.187 41.026 231.182 40.5235V20.6142C231.187 20.1126 231.381 19.6335 231.721 19.2798C232.061 18.9262 232.52 18.7264 233 18.7236H234.113C234.593 18.7236 235.054 18.9225 235.395 19.2767C235.735 19.6309 235.928 20.1118 235.931 20.6142V28.0908H245.07V20.6142C245.073 20.1118 245.265 19.6309 245.606 19.2767C245.947 18.9225 246.407 18.7236 246.888 18.7236H248.011C248.489 18.7292 248.945 18.9301 249.283 19.2835C249.621 19.6368 249.813 20.1145 249.818 20.6142V40.5235C249.816 41.025 249.625 41.5053 249.287 41.8609C248.949 42.2166 248.49 42.4191 248.011 42.4247Z" fill="white"/>
<path d="M254.077 20.6142C254.077 20.464 254.134 20.32 254.235 20.2139C254.337 20.1077 254.474 20.048 254.618 20.048H265.953C266.096 20.048 266.234 20.1077 266.336 20.2139C266.437 20.32 266.494 20.464 266.494 20.6142V21.4901C266.494 21.6402 266.437 21.7842 266.336 21.8903C266.234 21.9965 266.096 22.0562 265.953 22.0562H256.282V29.3938H264.533C264.678 29.3991 264.815 29.4617 264.918 29.5688C265.02 29.6758 265.08 29.8193 265.085 29.9706V30.8465C265.085 30.9218 265.071 30.9962 265.043 31.0656C265.015 31.1349 264.974 31.198 264.923 31.2507C264.871 31.3034 264.811 31.3447 264.744 31.3725C264.677 31.4003 264.605 31.4141 264.533 31.4126H256.282V39.0921H265.953C266.097 39.0949 266.235 39.1569 266.336 39.2647C266.437 39.3726 266.494 39.5178 266.494 39.6689V40.5341C266.494 40.6853 266.437 40.8302 266.336 40.9381C266.235 41.0459 266.097 41.1079 265.953 41.1107H254.628C254.484 41.1079 254.346 41.0459 254.245 40.9381C254.144 40.8302 254.087 40.6853 254.087 40.5341L254.077 20.6142Z" fill="white"/>
<path d="M265.953 42.4247H254.628C254.146 42.4247 253.684 42.2242 253.343 41.8677C253.002 41.5112 252.811 41.0277 252.811 40.5235V20.6142C252.813 20.1118 253.006 19.6309 253.347 19.2767C253.687 18.9225 254.148 18.7236 254.628 18.7236H265.963C266.443 18.7236 266.902 18.9229 267.241 19.2775C267.58 19.632 267.771 20.1128 267.771 20.6142V21.4901C267.771 21.9915 267.58 22.4722 267.241 22.8267C266.902 23.1813 266.443 23.3806 265.963 23.3806H257.559V28.0694H264.554C265.033 28.0777 265.489 28.281 265.827 28.636C266.164 28.9911 266.356 29.4699 266.361 29.9706V30.8465C266.361 31.3479 266.171 31.8287 265.832 32.1832C265.493 32.5377 265.033 32.7371 264.554 32.7371H257.559V37.757H265.963C266.443 37.7598 266.903 37.9614 267.242 38.3177C267.581 38.6739 267.771 39.1559 267.771 39.6582V40.5235C267.771 41.0277 267.579 41.5112 267.238 41.8677C266.897 42.2242 266.435 42.4247 265.953 42.4247Z" fill="white"/>
<path d="M270.63 20.6141C270.633 20.463 270.692 20.3191 270.795 20.2133C270.898 20.1074 271.037 20.0479 271.181 20.0479H278.626C279.442 20.028 280.254 20.1792 281.014 20.4923C281.774 20.8054 282.467 21.2744 283.051 21.8715C283.635 22.4686 284.099 23.1816 284.416 23.9691C284.733 24.7565 284.896 25.6022 284.896 26.4565C284.859 27.8093 284.432 29.1192 283.673 30.2149C282.913 31.3105 281.855 32.1409 280.637 32.598L284.579 40.235C284.634 40.3231 284.665 40.4257 284.668 40.5312C284.671 40.6367 284.645 40.741 284.594 40.8321C284.543 40.9232 284.469 40.9975 284.379 41.0467C284.29 41.096 284.19 41.118 284.089 41.1106H282.71C282.572 41.1201 282.435 41.0813 282.32 41C282.205 40.9188 282.12 40.7998 282.077 40.6621L278.34 32.865H272.846V40.5341C272.841 40.6836 272.783 40.8257 272.682 40.9325C272.582 41.0393 272.447 41.1027 272.305 41.1106H271.181C271.035 41.1106 270.895 41.0501 270.791 40.9419C270.688 40.8337 270.63 40.687 270.63 40.5341V20.6141ZM278.483 30.8678C279.577 30.8678 280.626 30.4131 281.4 29.6039C282.174 28.7947 282.608 27.6971 282.608 26.5527C282.608 25.4083 282.174 24.3107 281.4 23.5015C280.626 22.6923 279.577 22.2376 278.483 22.2376H272.907V30.8678H278.483Z" fill="white"/>
<path d="M284.089 42.4248H282.71C282.336 42.4349 281.968 42.3272 281.653 42.1158C281.338 41.9044 281.091 41.599 280.944 41.2391L277.554 34.1789H274.112V40.5236C274.11 41.0251 273.919 41.5054 273.58 41.861C273.242 42.2167 272.784 42.4192 272.305 42.4248H271.181C270.699 42.4248 270.237 42.2243 269.896 41.8678C269.555 41.5113 269.364 41.0278 269.364 40.5236V20.6143C269.366 20.1119 269.559 19.631 269.9 19.2768C270.24 18.9226 270.701 18.7237 271.181 18.7237H278.626C280.604 18.7038 282.509 19.5058 283.922 20.9538C285.335 22.4017 286.14 24.3771 286.162 26.446C286.139 27.8113 285.778 29.1471 285.114 30.3227C284.45 31.4984 283.506 32.4738 282.373 33.1536L285.692 39.5621C285.851 39.8535 285.934 40.1829 285.934 40.5181C285.934 40.8533 285.851 41.1827 285.692 41.474C285.531 41.7683 285.297 42.0119 285.015 42.1791C284.733 42.3464 284.413 42.4313 284.089 42.4248ZM274.173 29.5436H278.483C278.858 29.5436 279.23 29.4662 279.577 29.3159C279.924 29.1656 280.239 28.9454 280.505 28.6677C280.77 28.39 280.981 28.0602 281.124 27.6974C281.268 27.3345 281.342 26.9456 281.342 26.5529C281.342 26.1602 281.268 25.7712 281.124 25.4084C280.981 25.0456 280.77 24.7158 280.505 24.4381C280.239 24.1604 279.924 23.9401 279.577 23.7898C279.23 23.6395 278.858 23.5622 278.483 23.5622H274.173V29.5436Z" fill="white"/>
<path d="M288.204 38.2376L288.633 37.6715C288.919 37.2763 289.154 37.1268 289.552 37.49C290.927 38.7653 292.663 39.5344 294.495 39.6796C296.833 39.6796 298.355 38.1523 298.355 36.2511C298.355 34.179 296.629 32.9719 293.32 31.5086C290.012 30.0453 288.215 28.8277 288.215 25.3992C288.215 23.3484 289.767 20.0587 294.342 20.0587C296.085 20.0833 297.789 20.6121 299.264 21.5863C299.35 21.6368 299.425 21.7071 299.483 21.792C299.54 21.8769 299.579 21.974 299.595 22.0765C299.612 22.179 299.607 22.2842 299.579 22.3842C299.552 22.4842 299.503 22.5766 299.437 22.6544L299.141 23.167C298.916 23.5836 298.6 23.5835 298.12 23.3164C296.988 22.5212 295.654 22.1007 294.29 22.1096C291.227 22.1096 290.328 24.1602 290.328 25.4205C290.328 27.5567 291.789 28.4861 294.209 29.5435C298.089 31.199 300.591 32.7477 300.591 36.219C300.591 39.3485 297.742 41.7516 294.382 41.7516C292.147 41.725 289.995 40.8609 288.317 39.3164C288.143 39.0921 287.796 38.7823 288.204 38.2376Z" fill="white"/>
<path d="M294.454 43.0226C291.898 42.99 289.438 42.0012 287.52 40.235C287.314 40.0793 287.141 39.8801 287.012 39.6504C286.884 39.4207 286.802 39.1657 286.773 38.9012C286.745 38.6368 286.769 38.3691 286.845 38.115C286.921 37.861 287.046 37.6262 287.214 37.4258L287.643 36.8597C287.799 36.6251 287.999 36.4258 288.231 36.2735C288.462 36.1212 288.721 36.0192 288.991 35.9734C289.245 35.957 289.499 35.9938 289.74 36.0819C289.98 36.1699 290.201 36.3074 290.39 36.486C291.515 37.5684 292.951 38.2296 294.474 38.3659C295.996 38.3659 297.058 37.5007 297.058 36.2297C297.058 35.1616 296.353 34.2964 292.789 32.705C289.726 31.3271 286.958 29.7356 286.958 25.3778C286.958 22.793 289.001 18.7022 294.352 18.7022C296.356 18.7274 298.313 19.342 299.999 20.4754C300.376 20.7152 300.65 21.0977 300.765 21.5435C300.843 21.829 300.863 22.1285 300.825 22.4228C300.786 22.7171 300.689 22.9994 300.54 23.2523L300.244 23.7756C300.116 24.0161 299.941 24.2257 299.73 24.3903C299.52 24.5548 299.278 24.6707 299.021 24.7303C298.764 24.7899 298.499 24.7917 298.241 24.7358C297.984 24.6799 297.74 24.5674 297.528 24.4059C296.588 23.7161 295.469 23.3434 294.321 23.3378C291.697 23.3378 291.625 25.1109 291.625 25.3139C291.625 26.382 292.054 27.0441 294.689 28.2084C298.457 29.8212 301.837 31.6368 301.837 36.1121C301.919 39.9465 298.538 43.0226 294.454 43.0226ZM288.184 38.2376L289.205 39.06L288.184 38.2376ZM298.579 22.6755L298.722 22.7717L298.579 22.6755Z" fill="white"/>
<path d="M308.924 20.6142C308.924 20.464 308.981 20.32 309.082 20.2139C309.184 20.1077 309.322 20.048 309.465 20.048H320.8C320.944 20.048 321.081 20.1077 321.183 20.2139C321.284 20.32 321.341 20.464 321.341 20.6142V21.4901C321.341 21.6402 321.284 21.7842 321.183 21.8903C321.081 21.9965 320.944 22.0562 320.8 22.0562H311.14V30.3018H319.391C319.533 30.3071 319.667 30.3683 319.768 30.4734C319.868 30.5784 319.927 30.7195 319.932 30.8679V31.7438C319.927 31.8933 319.869 32.0355 319.769 32.1423C319.668 32.249 319.534 32.3124 319.391 32.3204H311.14V40.5235C311.132 40.6739 311.072 40.8161 310.97 40.9227C310.868 41.0292 310.732 41.0923 310.588 41.1H309.465C309.321 41.0972 309.183 41.0352 309.082 40.9274C308.98 40.8195 308.924 40.6746 308.924 40.5235V20.6142Z" fill="white"/>
<path d="M310.588 42.4247H309.465C308.985 42.4219 308.525 42.2203 308.186 41.864C307.848 41.5078 307.658 41.0258 307.658 40.5235V20.6142C307.658 20.1128 307.848 19.632 308.187 19.2775C308.526 18.9229 308.986 18.7236 309.465 18.7236H320.8C321.28 18.7236 321.741 18.9225 322.082 19.2767C322.422 19.6309 322.615 20.1118 322.618 20.6142V21.4901C322.615 21.9924 322.422 22.4733 322.082 22.8275C321.741 23.1818 321.28 23.3806 320.8 23.3806H312.406V28.9774H319.391C319.87 28.9829 320.327 29.1834 320.667 29.5364C321.006 29.8895 321.201 30.3673 321.209 30.8679V31.7438C321.201 32.2455 321.007 32.7241 320.668 33.0789C320.328 33.4337 319.871 33.6365 319.391 33.6448H312.406V40.5235C312.401 41.026 312.208 41.5063 311.868 41.8617C311.528 42.217 311.069 42.4191 310.588 42.4247Z" fill="white"/>
<path d="M324.966 20.6142C324.971 20.4639 325.031 20.3215 325.134 20.2162C325.236 20.1109 325.374 20.0507 325.517 20.048H326.661C326.804 20.0532 326.94 20.1143 327.042 20.2191C327.144 20.3239 327.205 20.4648 327.212 20.6142V40.5235C327.205 40.6739 327.145 40.8161 327.043 40.9227C326.941 41.0292 326.805 41.0923 326.661 41.1H325.517C325.373 41.0947 325.235 41.0323 325.133 40.9253C325.031 40.8183 324.971 40.6747 324.966 40.5235V20.6142Z" fill="white"/>
<path d="M326.662 18.7236H325.518C324.514 18.7236 323.7 19.5748 323.7 20.6248V40.5235C323.7 41.5735 324.514 42.4247 325.518 42.4247H326.662C327.665 42.4247 328.479 41.5735 328.479 40.5235V20.6248C328.479 19.5748 327.665 18.7236 326.662 18.7236Z" fill="white"/>
<path d="M332.727 20.6141C332.73 20.463 332.789 20.3191 332.892 20.2133C332.995 20.1074 333.134 20.0479 333.278 20.0479H340.723C341.539 20.028 342.351 20.1792 343.111 20.4923C343.871 20.8054 344.564 21.2744 345.148 21.8715C345.732 22.4686 346.196 23.1816 346.513 23.9691C346.83 24.7565 346.993 25.6022 346.993 26.4565C346.956 27.8093 346.53 29.1192 345.77 30.2149C345.01 31.3105 343.952 32.1409 342.734 32.598L346.676 40.235C346.732 40.3231 346.762 40.4257 346.765 40.5312C346.768 40.6367 346.742 40.741 346.691 40.8321C346.64 40.9232 346.566 40.9975 346.477 41.0467C346.387 41.096 346.287 41.118 346.186 41.1106H344.807C344.669 41.1201 344.532 41.0813 344.417 41C344.303 40.9188 344.217 40.7998 344.174 40.6621L340.437 32.865H334.943V40.5341C334.938 40.6836 334.88 40.8257 334.78 40.9325C334.679 41.0393 334.545 41.1027 334.402 41.1106H333.258C333.112 41.1106 332.971 41.0501 332.868 40.9419C332.765 40.8337 332.707 40.687 332.707 40.5341L332.727 20.6141ZM340.58 30.8678C341.674 30.8678 342.723 30.4131 343.497 29.6039C344.271 28.7947 344.705 27.6971 344.705 26.5527C344.705 25.4083 344.271 24.3107 343.497 23.5015C342.723 22.6923 341.674 22.2376 340.58 22.2376H335.004V30.8678H340.58Z" fill="white"/>
<path d="M346.186 42.4248H344.808C344.433 42.4349 344.065 42.3272 343.75 42.1158C343.435 41.9044 343.188 41.599 343.041 41.2391L339.651 34.1789H336.209V40.5236C336.207 41.0251 336.016 41.5054 335.678 41.861C335.339 42.2167 334.881 42.4192 334.402 42.4248H333.258C332.776 42.4248 332.314 42.2243 331.973 41.8678C331.632 41.5113 331.44 41.0278 331.44 40.5236V20.6143C331.443 20.1119 331.636 19.631 331.976 19.2768C332.317 18.9226 332.778 18.7237 333.258 18.7237H340.702C342.68 18.7038 344.585 19.5058 345.998 20.9538C347.411 22.4017 348.217 24.3771 348.239 26.446C348.216 27.8113 347.855 29.1471 347.191 30.3227C346.527 31.4984 345.582 32.4738 344.45 33.1536L347.769 39.5621C347.927 39.8554 348.01 40.1867 348.01 40.5236C348.01 40.8604 347.927 41.1914 347.769 41.4847C347.607 41.7724 347.375 42.0106 347.097 42.1755C346.82 42.3404 346.505 42.4264 346.186 42.4248ZM336.322 29.5436H340.631C341.006 29.5436 341.378 29.4662 341.725 29.3159C342.072 29.1656 342.387 28.9454 342.653 28.6677C342.918 28.39 343.129 28.0602 343.273 27.6974C343.416 27.3345 343.49 26.9456 343.49 26.5529C343.49 26.1602 343.416 25.7712 343.273 25.4084C343.129 25.0456 342.918 24.7158 342.653 24.4381C342.387 24.1604 342.072 23.9401 341.725 23.7898C341.378 23.6395 341.006 23.5622 340.631 23.5622H336.322V29.5436Z" fill="white"/>
<path d="M350.301 38.2376L350.73 37.6715C351.016 37.2763 351.251 37.1268 351.649 37.49C353.024 38.7653 354.76 39.5344 356.592 39.6796C358.93 39.6796 360.452 38.1523 360.452 36.2511C360.452 34.179 358.726 32.9719 355.418 31.4979C352.109 30.0239 350.312 28.8277 350.312 25.3992C350.312 23.3484 351.864 20.0587 356.439 20.0587C358.183 20.0833 359.886 20.6121 361.361 21.5863C361.448 21.6368 361.523 21.7071 361.58 21.792C361.637 21.8769 361.676 21.974 361.693 22.0765C361.709 22.179 361.704 22.2842 361.676 22.3842C361.649 22.4842 361.6 22.5766 361.534 22.6544L361.238 23.167C361.013 23.5836 360.697 23.5835 360.217 23.3164C359.085 22.5212 357.751 22.1007 356.388 22.1096C353.324 22.1096 352.425 24.1602 352.425 25.4205C352.425 27.5567 353.886 28.4861 356.306 29.5435C360.186 31.199 362.688 32.7477 362.688 36.219C362.688 39.3485 359.839 41.7516 356.48 41.7516C354.244 41.725 352.092 40.8609 350.414 39.3164C350.24 39.0921 349.893 38.7823 350.301 38.2376Z" fill="white"/>
<path d="M356.54 43.0226C353.99 42.9876 351.535 42.0032 349.617 40.2457C349.409 40.0898 349.235 39.8902 349.106 39.6601C348.976 39.4299 348.894 39.1741 348.864 38.9088C348.834 38.6435 348.858 38.3745 348.933 38.1192C349.008 37.8639 349.133 37.6278 349.3 37.4258L349.729 36.849C349.886 36.6144 350.086 36.4151 350.317 36.2628C350.549 36.1106 350.807 36.0085 351.077 35.9627C351.331 35.9445 351.586 35.9804 351.827 36.0686C352.067 36.1567 352.288 36.2951 352.476 36.4754C353.608 37.5464 355.041 38.2058 356.561 38.3552C358.082 38.3552 359.154 37.4901 359.154 36.219C359.154 35.1509 358.45 34.2751 354.886 32.6943C351.823 31.3165 349.055 29.7249 349.055 25.3671C349.055 22.7823 351.097 18.6915 356.448 18.6915C358.453 18.7167 360.409 19.3313 362.095 20.4647C362.284 20.5813 362.449 20.7357 362.58 20.919C362.712 21.1023 362.807 21.3108 362.861 21.5328C362.938 21.8168 362.958 22.1141 362.919 22.4064C362.88 22.6987 362.784 22.9794 362.637 23.2309L362.341 23.7543C362.213 23.9948 362.038 24.2044 361.827 24.3689C361.616 24.5334 361.375 24.6494 361.118 24.7089C360.861 24.7685 360.595 24.7703 360.338 24.7144C360.08 24.6585 359.837 24.546 359.624 24.3845C358.685 23.6947 357.566 23.322 356.418 23.3164C353.793 23.3164 353.722 25.0896 353.722 25.2925C353.722 26.3606 354.151 27.0228 356.785 28.187C360.554 29.7998 363.934 31.6154 363.934 36.0907C364.015 39.9465 360.666 43.0226 356.54 43.0226ZM350.27 38.2376L351.292 39.0494L350.27 38.2376ZM360.666 22.6755C360.708 22.7124 360.757 22.7414 360.809 22.761L360.666 22.6755Z" fill="white"/>
<path d="M370.255 22.0562H365.251C365.107 22.0562 364.968 21.997 364.865 21.8911C364.762 21.7852 364.702 21.6412 364.7 21.4901V20.6142C364.702 20.463 364.762 20.3192 364.865 20.2134C364.968 20.1075 365.107 20.048 365.251 20.048H377.444C377.587 20.048 377.725 20.1077 377.827 20.2139C377.928 20.32 377.985 20.464 377.985 20.6142V21.4901C377.985 21.6402 377.928 21.7842 377.827 21.8903C377.725 21.9965 377.587 22.0562 377.444 22.0562H372.44V40.5235C372.435 40.6747 372.375 40.8183 372.273 40.9253C372.171 41.0323 372.033 41.0947 371.889 41.1H370.796C370.653 41.0921 370.518 41.0287 370.418 40.9219C370.318 40.8151 370.26 40.673 370.255 40.5235V22.0562Z" fill="white"/>
<path d="M371.889 42.4247H370.796C370.317 42.4191 369.859 42.2166 369.52 41.8609C369.182 41.5053 368.991 41.025 368.989 40.5235V23.3806H365.251C364.771 23.3806 364.31 23.1818 363.97 22.8275C363.629 22.4733 363.436 21.9924 363.434 21.4901V20.6142C363.436 20.1118 363.629 19.6309 363.97 19.2767C364.31 18.9225 364.771 18.7236 365.251 18.7236H377.444C377.923 18.7236 378.383 18.9229 378.722 19.2775C379.061 19.632 379.251 20.1128 379.251 20.6142V21.4901C379.251 21.9915 379.061 22.4722 378.722 22.8267C378.383 23.1813 377.923 23.3806 377.444 23.3806H373.707V40.5235C373.701 41.026 373.508 41.5063 373.168 41.8617C372.829 42.217 372.369 42.4191 371.889 42.4247Z" fill="white"/>
<path d="M380.834 20.048C381.082 20.0438 381.329 20.0912 381.559 20.1875C381.789 20.2839 381.999 20.4273 382.176 20.6092C382.352 20.7911 382.493 21.008 382.589 21.2473C382.684 21.4865 382.734 21.7433 382.734 22.0027C382.753 22.2737 382.718 22.5458 382.632 22.8022C382.546 23.0586 382.41 23.2937 382.234 23.4927C382.057 23.6918 381.843 23.8507 381.605 23.9592C381.366 24.0678 381.109 24.1238 380.85 24.1238C380.59 24.1238 380.333 24.0678 380.095 23.9592C379.857 23.8507 379.642 23.6918 379.466 23.4927C379.289 23.2937 379.153 23.0586 379.067 22.8022C378.981 22.5458 378.946 22.2737 378.966 22.0027C378.964 21.7456 379.012 21.4908 379.105 21.253C379.198 21.0152 379.336 20.7993 379.51 20.6175C379.684 20.4358 379.89 20.2918 380.118 20.1941C380.345 20.0963 380.588 20.0466 380.834 20.048Z" fill="white"/>
<path d="M380.834 25.3457C379.996 25.3344 379.195 24.9767 378.608 24.3504C378.02 23.724 377.694 22.88 377.699 22.0027C377.745 21.1613 378.097 20.37 378.683 19.7912C379.269 19.2124 380.044 18.89 380.85 18.89C381.655 18.89 382.431 19.2124 383.016 19.7912C383.602 20.37 383.954 21.1613 384 22.0027C384.003 22.8847 383.671 23.7318 383.078 24.3585C382.484 24.9851 381.677 25.3401 380.834 25.3457ZM380.834 21.3725C380.755 21.371 380.676 21.3864 380.602 21.4176C380.528 21.4487 380.461 21.4951 380.405 21.5539C380.349 21.6128 380.305 21.6828 380.275 21.7599C380.245 21.8371 380.23 21.9196 380.232 22.0027C380.22 22.0946 380.228 22.188 380.254 22.2765C380.28 22.3651 380.323 22.4466 380.382 22.5162C380.44 22.5857 380.512 22.6415 380.593 22.6797C380.674 22.7178 380.761 22.7376 380.85 22.7376C380.938 22.7376 381.026 22.7178 381.106 22.6797C381.187 22.6415 381.259 22.5857 381.317 22.5162C381.376 22.4466 381.419 22.3651 381.445 22.2765C381.471 22.188 381.479 22.0946 381.467 22.0027C381.468 21.9172 381.451 21.8326 381.419 21.754C381.387 21.6753 381.339 21.6043 381.28 21.5453C381.221 21.4864 381.151 21.4408 381.074 21.411C380.998 21.3813 380.916 21.3681 380.834 21.3725Z" fill="white"/>
</svg>
