<svg xmlns="http://www.w3.org/2000/svg" viewBox="0 0 39.02 39.06"><defs><style>.cls-1{fill:#db256e;}</style></defs><g id="Layer_2" data-name="Layer 2"><g id="Artwork"><path class="cls-1" d="M21,10.1a9.78,9.78,0,0,1,8,8,1.62,1.62,0,0,0,1.6,1.35l.26,0a0,0,0,0,0,0,0,1.59,1.59,0,0,0,1.06-.66,1.64,1.64,0,0,0,.27-1.21A13,13,0,0,0,21.49,6.91h0A1.62,1.62,0,1,0,21,10.1Z"/><path class="cls-1" d="M30.93,23.69a4.28,4.28,0,0,0-3.1-1.41,4.36,4.36,0,0,0-3.12,1.39l-2.25,2.26-.17-.09-.11-.05c-.24-.12-.52-.26-.75-.4A27.36,27.36,0,0,1,15,19.5a16,16,0,0,1-1.93-3c.57-.53,1.1-1.06,1.59-1.57.11-.11.22-.23.34-.34l.34-.35a4.41,4.41,0,0,0,1.43-3.15A4.44,4.44,0,0,0,15.31,8L13.12,5.79l-.38-.38L12.37,5l-.17-.18c-.43-.44-.88-.9-1.33-1.31A4.31,4.31,0,0,0,7.79,2.21,4.45,4.45,0,0,0,4.68,3.55a0,0,0,0,0,0,0L1.93,6.29A6.44,6.44,0,0,0,0,10.35H0a14.47,14.47,0,0,0,1.06,6.18A35,35,0,0,0,7.32,26.92a38.33,38.33,0,0,0,12.74,10h0A20.07,20.07,0,0,0,27.32,39h0l.51,0a6.57,6.57,0,0,0,5-2.16l0,0,0,0a16.1,16.1,0,0,1,1.36-1.41c.35-.33.71-.68,1.06-1a4.55,4.55,0,0,0,1.37-3.16,4.44,4.44,0,0,0-1.4-3.13l-4.39-4.4Zm-.43,11a3.34,3.34,0,0,1-2.62,1.09l-.33,0A16.93,16.93,0,0,1,21.49,34,34.92,34.92,0,0,1,9.81,24.85a32.23,32.23,0,0,1-5.67-9.44,11.07,11.07,0,0,1-.87-4.79,3.13,3.13,0,0,1,1-2L7,5.86a1.23,1.23,0,0,1,.85-.42,1.25,1.25,0,0,1,.82.42h0c.47.45.93.92,1.42,1.41h0l.78.79L13,10.26c.63.64.63,1.09,0,1.72l-.7.7-.16.17c-.61.62-1.19,1.21-1.82,1.77l0,0,0,0a2.16,2.16,0,0,0-.54,2.38l0,.06a.08.08,0,0,0,0,0,18.14,18.14,0,0,0,2.68,4.35h0a30,30,0,0,0,7.26,6.6c.34.22.7.4,1,.57l.75.4,0,0h0l.08,0a2.28,2.28,0,0,0,1,.26,2.19,2.19,0,0,0,1.61-.72L27,26a1.26,1.26,0,0,1,.83-.44,1.2,1.2,0,0,1,.78.43h0l4.42,4.42c.44.44.73.95,0,1.76h0c-.24.26-.5.51-.77.78l-.18.17a18.77,18.77,0,0,0-1.58,1.63Z"/><path class="cls-1" d="M39,17.19A21,21,0,0,0,21.81,0a1.62,1.62,0,0,0-.54,3.2A17.83,17.83,0,0,1,35.79,17.74a1.62,1.62,0,0,0,1.6,1.35h0l.24,0a0,0,0,0,0,0,0A1.61,1.61,0,0,0,39,17.19Z"/></g></g></svg>