<svg width="96" height="96" viewBox="0 0 96 96" fill="none" xmlns="http://www.w3.org/2000/svg">
<path d="M67.6925 9.81305L70.8715 5.84872H71.0384C71.6351 5.89844 72.2216 6.06784 72.7751 6.35038C74.3176 7.13244 75.7774 8.1474 77.1218 9.37255C78.9446 10.9975 80.6546 12.8107 82.2338 14.7929L84.1962 17.24C86.2503 19.7459 88.0585 22.547 89.5829 25.5846C90.1259 26.6765 90.589 27.8272 90.9664 29.0228C91.197 29.7114 91.3329 30.4436 91.3687 31.1885C91.3687 31.2864 91.3687 31.3597 91.3687 31.3965L86.3744 37.6366C86.1204 37.9524 85.9301 38.339 85.8193 38.7644C85.7084 39.1898 85.68 39.6419 85.7366 40.0837C85.7366 40.1571 85.7367 41.6131 84.1864 44.8555C82.6361 48.0979 79.7023 53.0778 74.031 60.1499L68.085 67.5646L50.5707 89.2826C50.0813 89.8923 49.4178 90.2348 48.726 90.2348C48.0343 90.2348 47.3708 89.8923 46.8814 89.2826C46.3925 88.6723 46.1178 87.845 46.1178 86.9823C46.1178 86.1197 46.3925 85.2924 46.8814 84.6821L60.4611 67.7482C60.844 67.2743 61.0835 66.6497 61.139 65.9806C61.1944 65.3114 61.0624 64.639 60.7653 64.0775L60.6476 63.9062C60.5908 63.807 60.5285 63.713 60.4611 63.6248C60.0254 63.0853 59.4365 62.7826 58.8226 62.7826C58.2086 62.7826 57.6196 63.0853 57.1839 63.6248L50.394 72.0917L38.3549 87.1536C37.9899 87.6084 37.525 87.918 37.0189 88.0434C36.5129 88.1688 35.9884 88.1043 35.5117 87.8582C35.035 87.612 34.6275 87.1952 34.3406 86.6604C34.0538 86.1256 33.9006 85.4967 33.9002 84.8534C33.8988 84.4258 33.9659 84.0021 34.0973 83.6071C34.2287 83.2122 34.4219 82.8539 34.6656 82.5531L53.3083 59.3668L53.5339 59.0854C53.9153 58.61 54.1529 57.9847 54.2066 57.3156C54.2602 56.6465 54.1265 55.9749 53.8282 55.4148C53.7411 55.2494 53.6427 55.0939 53.5339 54.9498C53.0966 54.4096 52.5059 54.1065 51.8904 54.1065C51.2748 54.1065 50.6842 54.4096 50.2469 54.9498L48.9321 56.5894L28.9158 81.562C28.4264 82.1717 27.7629 82.5142 27.0712 82.5142C26.3794 82.5142 25.7159 82.1717 25.2265 81.562C24.737 80.9496 24.4621 80.1203 24.4621 79.2556C24.4621 78.391 24.737 77.5616 25.2265 76.9492L30.6426 70.1953L44.0163 53.5305L44.7228 52.6373C45.1074 52.1647 45.348 51.5398 45.4035 50.8701C45.459 50.2003 45.3259 49.5274 45.0269 48.9667C44.9368 48.8045 44.8351 48.653 44.7228 48.5139C44.2872 47.9745 43.6981 47.6717 43.0842 47.6717C42.4702 47.6717 41.8812 47.9745 41.4456 48.5139L39.6402 50.7653L34.4105 57.299L27.3655 66.0719C26.8761 66.6816 26.2126 67.024 25.5208 67.024C24.829 67.024 24.1656 66.6816 23.6762 66.0719C23.1872 65.4616 22.9126 64.6343 22.9126 63.7716C22.9126 62.909 23.1872 62.0816 23.6762 61.4713L34.175 48.3793C34.3449 48.1538 34.487 47.8982 34.5968 47.6207C34.8466 47.0071 34.9124 46.3024 34.7824 45.6337C34.6524 44.9649 34.335 44.3761 33.8877 43.9732C33.4403 43.5703 32.8923 43.3798 32.3423 43.4362C31.7924 43.4925 31.2765 43.7919 30.8879 44.2804L20.3892 57.3724C19.0321 59.0697 18.27 61.3687 18.27 63.7655C18.27 66.1623 19.0321 68.4613 20.3892 70.1585C21.021 70.9492 21.7666 71.5843 22.5871 72.0306L21.9394 72.8381C20.9284 74.105 20.2406 75.7167 19.9628 77.4701C19.685 79.2235 19.8296 81.0403 20.3783 82.6915C20.927 84.3426 21.8554 85.7543 23.0464 86.7487C24.2374 87.7431 25.6379 88.2757 27.0712 88.2793C27.9676 88.2723 28.8554 88.0608 29.6909 87.6553C30.0405 88.9861 30.6392 90.194 31.4374 91.1791C32.1101 92.02 32.9091 92.6872 33.7888 93.1424C34.6686 93.5976 35.6117 93.8319 36.5641 93.8319C37.5166 93.8319 38.4597 93.5976 39.3394 93.1424C40.2192 92.6872 41.0182 92.02 41.6908 91.1791L42.1423 90.6163C42.707 92.2194 43.6342 93.5825 44.8105 94.5387C45.9868 95.4948 47.3612 96.0026 48.7653 95.9999C49.7184 96.0047 50.6626 95.7736 51.5435 95.3199C52.4244 94.8662 53.2244 94.1991 53.897 93.3571L68.9779 74.5511L77.2984 64.1754C83.1855 56.8341 86.3744 51.5483 88.17 47.7064C89.2515 45.629 89.9795 43.2969 90.309 40.8545L94.744 35.3241C95.1942 34.7522 95.5303 34.0565 95.7252 33.293C95.9111 32.5989 96.0039 31.8713 96 31.1395C95.9661 29.7006 95.7303 28.2802 95.3032 26.9428C94.5515 24.5588 93.5625 22.302 92.3597 20.2254C90.9104 17.6794 89.2888 15.2929 87.5126 13.0922L85.5502 10.6451C83.2759 7.75374 80.733 5.21117 77.9755 3.07128C76.8557 2.20146 75.673 1.46414 74.4431 0.8689C73.3706 0.336383 72.2316 0.0423358 71.0776 0.000152621C70.4908 -0.00480281 69.9074 0.110947 69.3507 0.342745C68.7407 0.591905 68.1837 1.01023 67.7219 1.5663L64.4546 5.64074C64.1367 6.05085 63.9233 6.56917 63.8414 7.13033C63.7594 7.6915 63.8126 8.27037 63.9942 8.7939C64.1758 9.31743 64.4776 9.76219 64.8616 10.072C65.2456 10.3819 65.6947 10.543 66.152 10.5349C66.7459 10.5276 67.3135 10.2287 67.7317 9.70293L67.6925 9.81305Z" fill="white"/>
<path d="M1.37382 35.3362L5.80883 40.8667C6.01032 42.5792 6.44849 44.2352 7.10395 45.7609C8.83544 49.818 10.9647 53.5909 13.4425 56.9931C13.8446 57.5739 14.4152 57.9318 15.0288 57.9881C15.6425 58.0443 16.249 57.7942 16.7148 57.2928C17.1806 56.7915 17.4676 56.0799 17.5127 55.3146C17.5578 54.5494 17.3572 53.7932 16.9552 53.2123V53.2123C16.8767 53.1144 16.8178 53.0165 16.7393 52.9064C14.6092 49.9618 12.7709 46.7082 11.2642 43.2159C10.8096 42.2332 10.5162 41.1477 10.4009 40.0224V40.0224C10.453 39.5798 10.4215 39.1281 10.3091 38.7033C10.1967 38.2785 10.0064 37.8923 9.75324 37.5753L4.759 31.3352C4.759 31.3352 4.759 31.2251 4.759 31.1272C4.79988 30.3832 4.9356 29.6521 5.16121 28.9615C5.78836 27.038 6.60225 25.2177 7.58472 23.5412C8.88548 21.2697 10.3397 19.1411 11.9315 17.1787L13.8938 14.7316C15.906 12.1738 18.1519 9.9193 20.5855 8.01435C21.4612 7.33723 22.384 6.75982 23.3427 6.28913C23.8966 6.0078 24.4829 5.83845 25.0795 5.78747H25.2757C25.4271 5.95065 25.5915 6.09415 25.7663 6.21572L40.0034 14.9763C40.2272 15.1082 40.4651 15.1989 40.7098 15.2455L67.8496 19.944C67.6681 20.7823 67.4319 21.6008 67.1432 22.3911C67.1043 22.4985 67.0433 22.5914 66.9665 22.6602C66.6738 22.9105 66.3374 23.0699 65.9853 23.1252C65.3385 23.2764 64.681 23.3461 64.023 23.3332C63.0418 23.3332 61.835 23.2231 60.6575 23.0885C59.4801 22.9539 58.2733 22.8315 57.1253 22.8315C56.4478 22.8216 55.771 22.8912 55.1039 23.0395C54.3515 23.199 53.6373 23.5669 53.014 24.1163C52.7032 24.4003 52.4565 24.7796 52.2978 25.2175V25.2175C51.5785 26.9106 50.6403 28.4442 49.521 29.7568C48.5665 30.8898 47.4692 31.8198 46.2732 32.5098C44.8363 33.3187 43.2774 33.7359 41.7008 33.7334C39.1988 33.7334 36.059 32.7912 32.144 29.9648C31.6449 29.6192 31.0613 29.5146 30.5043 29.671C29.9473 29.8273 29.456 30.2337 29.1238 30.8127C28.7916 31.3918 28.6418 32.1029 28.703 32.8107C28.7642 33.5186 29.0321 34.1736 29.4556 34.651C29.5677 34.7719 29.6893 34.8785 29.8186 34.9692C34.2732 38.1871 38.2372 39.5208 41.7008 39.5208C44.035 39.5348 46.342 38.895 48.4514 37.6487C50.8357 36.1885 52.9252 34.0765 54.5642 31.4698C55.1116 30.5933 55.613 29.6737 56.0655 28.7168H56.1343C56.4594 28.6626 56.7874 28.6381 57.1154 28.6434C57.9593 28.6434 59.0778 28.7535 60.2552 28.8881C61.4326 29.0227 62.7278 29.145 64.0131 29.145C64.8215 29.1529 65.6291 29.0751 66.427 28.9126C66.9333 28.8195 67.4323 28.6721 67.9184 28.4721C68.5972 28.1997 69.2341 27.786 69.8022 27.2486C70.4198 26.634 70.9166 25.8513 71.2543 24.9605C72.0332 22.7369 72.5774 20.3967 72.8733 17.9985C72.9213 17.6199 72.9078 17.2331 72.8337 16.861C72.7595 16.489 72.6262 16.1394 72.4417 15.8328C72.0683 15.2154 71.5147 14.8065 70.9011 14.6949L66.1424 13.8751L41.6125 9.64165L27.9838 1.24811C27.6004 0.865103 27.1651 0.570851 26.6985 0.379366C26.1418 0.147568 25.5584 0.0318183 24.9716 0.0367737C23.8176 0.0789569 22.6785 0.373004 21.606 0.905521C19.6961 1.84793 17.8869 3.08081 16.2193 4.57617C14.1774 6.38787 12.2637 8.41409 10.499 10.6327L8.53657 13.0798C6.21796 15.916 4.17895 19.087 2.46293 22.5256C1.7654 23.922 1.17419 25.3967 0.696851 26.9304C0.269813 28.2679 0.03395 29.6883 0.000122353 31.1272C-0.00385152 31.859 0.0890005 32.5865 0.274885 33.2806C0.500992 34.0675 0.878307 34.7733 1.37382 35.3362Z" fill="white"/>
</svg>
