<svg width="96" height="96" viewBox="0 0 96 96" fill="none" xmlns="http://www.w3.org/2000/svg">
<path d="M62.9275 83.9326V82.0536C62.9275 75.8139 62.9275 70.4785 62.9275 70.1068V68.2278H62.7357C62.7906 67.6918 62.9023 67.163 63.0689 66.6503C63.273 66.0526 63.5438 65.4796 63.8764 64.9422C64.5734 63.8707 65.3283 62.8376 66.1376 61.8474C67.1471 60.6115 68.2474 59.1245 69.5496 57.2053C70.0165 56.4845 70.4056 55.7166 70.7105 54.9145C71.2618 53.4572 71.6675 51.9494 71.9218 50.413C72.2324 48.6041 72.3878 46.7721 72.3862 44.9369C72.3993 42.1739 72.0325 39.4221 71.2959 36.758C70.7258 34.6368 69.8557 32.6069 68.7117 30.7293C66.8676 27.7053 64.2335 25.2362 61.0903 23.5853C57.1519 21.6184 52.7858 20.6519 48.3811 20.7719C44.3006 20.69 40.2508 21.4887 36.5099 23.1131C34.2097 24.1533 32.1247 25.6118 30.3622 27.4136C27.989 29.9045 26.2239 32.906 25.2039 36.1853C24.248 39.2185 23.7712 42.3811 23.7906 45.5599C23.7854 47.7949 24.0155 50.0243 24.477 52.2116C24.6707 53.1245 24.9236 54.024 25.2341 54.9044C25.502 55.6608 25.8399 56.3907 26.2436 57.0848C27.0226 58.3421 27.8931 59.541 28.848 60.6718C30.0025 61.9455 31.0428 63.3173 31.9572 64.7714C32.3423 65.4507 32.6375 66.1768 32.8354 66.9316C32.9421 67.3449 33.023 67.7644 33.0777 68.1876H32.8859V70.0665C32.8859 70.2876 32.8859 72.4479 32.8859 75.5426C32.8859 77.4215 32.8859 79.6421 32.8859 81.9833C32.8859 81.9833 32.8859 82.0536 32.8859 82.0837C32.8859 82.1139 32.8859 82.154 32.8859 82.1842V83.8823H33.9761L41.5875 91.7096C42.0969 92.8049 42.8331 93.7807 43.7477 94.5732C44.3062 95.0269 44.9375 95.3835 45.6152 95.6282C46.3465 95.8759 47.114 96.0015 47.8865 95.9999C48.6726 96.0049 49.453 95.8653 50.1881 95.588C51.1872 95.2079 52.0779 94.5905 52.7824 93.7895C53.3387 93.148 53.8164 92.443 54.2057 91.6894L61.8171 83.8823L62.9275 83.9326ZM32.0783 58.6824C31.1245 57.5874 30.2603 56.4181 29.4941 55.1857C29.2143 54.7065 28.981 54.2018 28.7976 53.6785C27.96 51.0816 27.5476 48.3676 27.5761 45.6403C27.5821 43.168 27.9216 40.7078 28.5856 38.3255C29.0766 36.4985 29.8242 34.7497 30.8064 33.1307C32.3312 30.5826 34.5268 28.4979 37.1559 27.102C40.6588 25.3535 44.5452 24.5039 48.4619 24.6303V24.6303C51.8891 24.5427 55.2949 25.1939 58.4455 26.5394C60.2594 27.3481 61.906 28.4862 63.301 29.8954C65.2215 31.8851 66.649 34.2934 67.4701 36.9288C68.2876 39.5301 68.6963 42.2415 68.6815 44.9671C68.6879 47.0665 68.4542 49.1599 67.9849 51.2068C67.8003 52.0125 67.5608 52.8047 67.2682 53.5781C67.0621 54.1236 66.7982 54.6457 66.4809 55.1355C64.3206 58.3508 62.5742 60.2599 61.2114 62.2594C60.5073 63.2574 59.9499 64.3502 59.5559 65.5048C59.2633 66.3973 59.0803 67.3217 59.0108 68.2579H36.8733C36.7051 66.0649 35.9677 63.9529 34.7332 62.1288C33.9161 60.9298 33.0296 59.779 32.0783 58.6824V58.6824ZM49.6228 91.6693C49.4034 91.8614 49.1501 92.0113 48.8758 92.1114C48.5534 92.2323 48.2107 92.2903 47.8663 92.2823C47.5229 92.2896 47.1809 92.2351 46.8569 92.1215C46.4465 91.971 46.0816 91.7185 45.7969 91.388C45.4005 90.9235 45.0772 90.4017 44.838 89.8406L44.3332 88.7454H43.9092L39.3061 84.023H52.0354C52.2956 84.0419 52.5569 84.0072 52.803 83.9211C53.0491 83.835 53.2748 83.6993 53.4658 83.5225C53.6569 83.3457 53.8093 83.1316 53.9135 82.8936C54.0177 82.6555 54.0715 82.3987 54.0715 82.139C54.0715 81.8793 54.0177 81.6225 53.9135 81.3844C53.8093 81.1464 53.6569 80.9323 53.4658 80.7555C53.2748 80.5787 53.0491 80.443 52.803 80.3569C52.5569 80.2708 52.2956 80.2361 52.0354 80.255H36.6916C36.6916 79.2502 36.6916 78.356 36.6916 77.4718H52.0859C52.3461 77.4907 52.6074 77.4561 52.8535 77.37C53.0996 77.2839 53.3252 77.1481 53.5163 76.9713C53.7074 76.7945 53.8598 76.5805 53.964 76.3424C54.0682 76.1044 54.122 75.8475 54.122 75.5878C54.122 75.3281 54.0682 75.0713 53.964 74.8332C53.8598 74.5952 53.7074 74.3811 53.5163 74.2043C53.3252 74.0275 53.0996 73.8918 52.8535 73.8057C52.6074 73.7196 52.3461 73.6849 52.0859 73.7038H36.6815C36.6815 73.0608 36.6815 72.4881 36.6815 71.9957H59.1723C59.1723 74.0053 59.1723 77.4417 59.1723 81.2799L51.9243 88.7253H51.5004L50.9755 89.7301C50.6645 90.4629 50.2039 91.1232 49.6228 91.6693V91.6693Z" fill="white"/>
<path d="M14.0794 16.4411L22.882 25.2129C23.0539 25.4039 23.2631 25.558 23.4969 25.6659C23.7306 25.7739 23.984 25.8333 24.2416 25.8405C24.4991 25.8478 24.7555 25.8028 24.995 25.7082C25.2346 25.6136 25.4522 25.4715 25.6348 25.2905C25.8173 25.1095 25.9608 24.8934 26.0567 24.6553C26.1526 24.4173 26.1989 24.1623 26.1925 23.9059C26.1862 23.6495 26.1275 23.3971 26.02 23.164C25.9124 22.9309 25.7584 22.7221 25.5671 22.5502L16.7545 13.7785C16.3998 13.4254 15.9186 13.2271 15.417 13.2271C14.9153 13.2271 14.4341 13.4254 14.0794 13.7785C13.7247 14.1316 13.5254 14.6104 13.5254 15.1098C13.5254 15.6091 13.7247 16.088 14.0794 16.4411Z" fill="white"/>
<path d="M14.0795 80.9482C14.2549 81.1235 14.4634 81.2626 14.6929 81.3575C14.9224 81.4524 15.1686 81.5013 15.4171 81.5013C15.6656 81.5013 15.9118 81.4524 16.1413 81.3575C16.3708 81.2626 16.5793 81.1235 16.7547 80.9482L25.5571 72.1866C25.9119 71.8335 26.1112 71.3546 26.1112 70.8552C26.1112 70.3559 25.9119 69.877 25.5571 69.5239C25.2024 69.1708 24.7213 68.9724 24.2196 68.9724C23.7179 68.9724 23.2368 69.1708 22.8821 69.5239L14.0795 78.2855C13.9034 78.4601 13.7637 78.6676 13.6683 78.8961C13.573 79.1246 13.5239 79.3695 13.5239 79.6169C13.5239 79.8643 13.573 80.1093 13.6683 80.3377C13.7637 80.5662 13.9034 80.7737 14.0795 80.9482Z" fill="white"/>
<path d="M16.3402 47.3581C16.3402 46.8598 16.1414 46.3819 15.7873 46.0295C15.4333 45.6771 14.9532 45.4791 14.4525 45.4791H2.03612C1.77593 45.4602 1.5146 45.4949 1.26848 45.581C1.02237 45.6671 0.796786 45.8028 0.605715 45.9796C0.414644 46.1564 0.262186 46.3704 0.157975 46.6085C0.0537637 46.8465 0 47.1034 0 47.3631C0 47.6228 0.0537637 47.8796 0.157975 48.1177C0.262186 48.3557 0.414644 48.5699 0.605715 48.7466C0.796786 48.9234 1.02237 49.0591 1.26848 49.1452C1.5146 49.2313 1.77593 49.266 2.03612 49.2471H14.4525C14.7013 49.2471 14.9476 49.1981 15.1773 49.1031C15.4069 49.008 15.6155 48.8687 15.7909 48.6932C15.9663 48.5176 16.1051 48.3093 16.1994 48.0802C16.2937 47.8511 16.3415 47.6057 16.3402 47.3581Z" fill="white"/>
<path d="M45.9277 1.75132V14.8738C45.9627 15.3497 46.1773 15.7948 46.5284 16.1196C46.8795 16.4445 47.3411 16.6251 47.8205 16.6251C48.2999 16.6251 48.7615 16.4445 49.1126 16.1196C49.4637 15.7948 49.6783 15.3497 49.7132 14.8738V1.75132C49.6783 1.27543 49.4637 0.830331 49.1126 0.505457C48.7615 0.180583 48.2999 0 47.8205 0C47.3411 0 46.8795 0.180583 46.5284 0.505457C46.1773 0.830331 45.9627 1.27543 45.9277 1.75132V1.75132Z" fill="white"/>
<path d="M70.6799 25.2129C71.0354 25.5645 71.5162 25.7618 72.0174 25.7618C72.5186 25.7618 72.9994 25.5645 73.355 25.2129L82.1675 16.4411C82.5223 16.088 82.7216 15.6091 82.7216 15.1098C82.7216 14.6104 82.5223 14.1316 82.1675 13.7785C81.8128 13.4254 81.3317 13.2271 80.83 13.2271C80.3283 13.2271 79.8472 13.4254 79.4924 13.7785L70.6799 22.5502C70.3266 22.9041 70.1284 23.3827 70.1284 23.8816C70.1284 24.3804 70.3266 24.859 70.6799 25.2129V25.2129Z" fill="white"/>
<path d="M82.1269 80.9483C82.4807 80.5927 82.6792 80.1124 82.6792 79.6119C82.6792 79.1114 82.4807 78.6312 82.1269 78.2756L73.3243 69.5139C73.1524 69.3229 72.9431 69.1687 72.7094 69.0608C72.4756 68.9529 72.2223 68.8935 71.9647 68.8863C71.7072 68.879 71.4508 68.924 71.2113 69.0185C70.9717 69.1131 70.7541 69.2552 70.5715 69.4362C70.389 69.6172 70.2454 69.8334 70.1495 70.0714C70.0536 70.3094 70.0074 70.5645 70.0138 70.8209C70.0201 71.0773 70.0788 71.3297 70.1863 71.5628C70.2939 71.7958 70.4479 72.0047 70.6392 72.1766L79.4518 80.9382C79.6265 81.1142 79.8344 81.2541 80.0636 81.3499C80.2928 81.4456 80.5387 81.4954 80.7872 81.4963C81.0358 81.4973 81.282 81.4493 81.5119 81.3553C81.7418 81.2612 81.9508 81.1229 82.1269 80.9483V80.9483Z" fill="white"/>
<path d="M81.7837 45.4791C81.5235 45.4602 81.2622 45.4949 81.016 45.581C80.7699 45.6671 80.5443 45.8028 80.3533 45.9796C80.1622 46.1564 80.0097 46.3704 79.9055 46.6085C79.8013 46.8465 79.7476 47.1034 79.7476 47.3631C79.7476 47.6228 79.8013 47.8796 79.9055 48.1177C80.0097 48.3557 80.1622 48.5699 80.3533 48.7466C80.5443 48.9234 80.7699 49.0591 81.016 49.1452C81.2622 49.2313 81.5235 49.266 81.7837 49.2471H94.2405C94.7186 49.2123 95.1658 48.9987 95.4921 48.6492C95.8185 48.2997 96 47.8403 96 47.3631C96 46.886 95.8185 46.4264 95.4921 46.077C95.1658 45.7275 94.7186 45.5139 94.2405 45.4791H81.7837Z" fill="white"/>
</svg>
