<svg width="24" height="24" viewBox="0 0 24 24" fill="none" xmlns="http://www.w3.org/2000/svg">
<path d="M22.7199 0.0300293H2.19995C1.51512 0.0300293 0.959961 0.585186 0.959961 1.27002V21.79C0.959961 22.4749 1.51512 23.03 2.19995 23.03H22.7199C23.4047 23.03 23.96 22.4749 23.96 21.79V1.27002C23.96 0.585186 23.4047 0.0300293 22.7199 0.0300293Z" fill="#00B67A"/>
<path d="M17.44 19.1899L15.97 14.6599L12.49 15.5801L12.48 15.5901L17.44 19.1899Z" fill="#C0E3D4"/>
<path d="M14.3499 9.71997L12.4399 3.86011L10.5399 9.71997H4.35986L9.35986 13.3601L7.44989 19.22L12.4399 15.6101L12.4799 15.5901L12.4698 15.5801H12.4899L20.5199 9.71997H14.3499Z" fill="white"/>
<path d="M12.4797 15.5901L12.4897 15.5801H12.4697L12.4797 15.5901Z" fill="#00B67A"/>
</svg>
