<svg xmlns="http://www.w3.org/2000/svg" viewBox="0 0 59.62 47.71"><defs><style>.cls-1{fill:#fff;}</style></defs><g id="Layer_2" data-name="Layer 2"><g id="Artwork"><path class="cls-1" d="M15.86,47.71a6,6,0,0,1-5.95-6v-6A9.94,9.94,0,0,1,0,25.84V17.89A9.94,9.94,0,0,1,9.91,8H22.25a30,30,0,0,0,13.3-3.15l5.3-2.66h0A5.95,5.95,0,0,1,49,5.27a44.62,44.62,0,0,1,0,33.2,5.95,5.95,0,0,1-8.19,3.12l-5.31-2.66h0a29.84,29.84,0,0,0-13.3-3.15h-.44v6a6,6,0,0,1-5.95,6ZM9.91,11.93a6,6,0,0,0-5.95,6v8a6,6,0,0,0,6,6h2a2,2,0,0,1,2,2v8a2,2,0,0,0,.57,1.42,2,2,0,0,0,2.82,0,2,2,0,0,0,.57-1.42v-8a2,2,0,0,1,2-2h2.43a33.7,33.7,0,0,1,15.07,3.56L42.63,38a2,2,0,0,0,2.72-1,40.66,40.66,0,0,0,0-30.25,2,2,0,0,0-1.13-1.12,2,2,0,0,0-1.59.08L37.32,8.36a33.84,33.84,0,0,1-15.07,3.57Zm9.91,6h0a2,2,0,0,1-2,2H9.91a2,2,0,1,1,0-4h7.93a2,2,0,0,1,1.4.58,2,2,0,0,1,.58,1.4Zm-2,6H9.91a2,2,0,1,0,0,4h7.93a2,2,0,1,0,0-4ZM55.49,1.23A2,2,0,0,0,54.41.15a2,2,0,0,0-1.52,0,2,2,0,0,0-1.07,1.08,2,2,0,0,0,0,1.53,49.56,49.56,0,0,1,0,38.22,2,2,0,0,0,2.58,2.61,2,2,0,0,0,1.08-1.08,53.61,53.61,0,0,0,0-41.28Z"/></g></g></svg>