<svg xmlns="http://www.w3.org/2000/svg" viewBox="0 0 70.54 70.54"><defs><style>.cls-1{fill:#fff;}</style></defs><g id="Layer_2" data-name="Layer 2"><g id="Artwork"><path class="cls-1" d="M55,25.48a1.84,1.84,0,0,0-2.58.35L46,34.14a.13.13,0,0,0,0,0s0,0-.05.06l0,.09a.11.11,0,0,0,0,.06l-.07.14a.11.11,0,0,0,0,.06.18.18,0,0,0,0,.11s0,0,0,.06a.32.32,0,0,1,0,.09s0,0,0,.08,0,.08,0,.11,0,.05,0,.06,0,.11,0,.17,0,.11,0,.17,0,0,0,.06a.23.23,0,0,0,0,.11s0,0,0,.07a.29.29,0,0,0,0,.1s0,0,0,.06a.29.29,0,0,1,0,.11.35.35,0,0,1,0,.06s.05.09.07.14,0,0,0,.06l0,.09s0,0,.05.06a.13.13,0,0,0,0,.05l6.36,8.32a1.85,1.85,0,0,0,2.94-2.24l-4.11-5.39H68.7a1.85,1.85,0,0,0,0-3.69H51.21l4.11-5.36A1.86,1.86,0,0,0,55,25.48Z"/><path class="cls-1" d="M25.48,55a1.84,1.84,0,0,0,2.58.36l5.36-4.11V68.7a1.85,1.85,0,0,0,3.69,0V51.21l5.36,4.11A1.84,1.84,0,0,0,45.05,55a1.83,1.83,0,0,0-.35-2.58L36.39,46s0,0,0,0l-.06-.05-.09,0-.06,0L36,45.79l-.05,0-.11,0h-.06l-.09,0-.06,0h-.17a1,1,0,0,0-.34,0h-.17s0,0-.06,0l-.09,0h-.06a.23.23,0,0,1-.11,0l0,0a.7.7,0,0,0-.14.08l-.06,0-.09,0s0,0-.06.05l0,0-8.32,6.36A1.82,1.82,0,0,0,25.48,55Z"/><path class="cls-1" d="M35.26,0a1.85,1.85,0,0,0-1.84,1.84V19.33l-5.36-4.1a1.84,1.84,0,0,0-2.23,2.93l8.33,6.36a.05.05,0,0,0,0,0,.13.13,0,0,0,.07.05l.09,0,.06,0,.14.07,0,0,.11.05h.06a.32.32,0,0,0,.09,0l.07,0h.17l.16,0a.47.47,0,0,0,.17,0h.17s0,0,.06,0a.19.19,0,0,0,.1,0h.06l.1-.05,0,0a.46.46,0,0,0,.14-.07s0,0,.06,0l.09,0,.06-.05s0,0,0,0l8.33-6.36a1.84,1.84,0,1,0-2.23-2.93l-5.36,4.08V1.84A1.84,1.84,0,0,0,35.26,0Z"/><path class="cls-1" d="M0,35.26a1.85,1.85,0,0,0,1.84,1.85H19.33l-4.1,5.36a1.84,1.84,0,0,0,.35,2.58,1.82,1.82,0,0,0,1.12.39,1.8,1.8,0,0,0,1.46-.73l6.36-8.32s0,0,0,0l.05-.06,0-.09a.21.21,0,0,0,0-.07.75.75,0,0,0,.06-.13.13.13,0,0,0,0-.07.18.18,0,0,0,0-.1s0,0,0-.06a.54.54,0,0,0,0-.1s0,0,0-.07,0-.08,0-.11.05,0,.05-.06,0-.11,0-.17,0-.11,0-.17,0,0,0-.06a.45.45,0,0,0,0-.11s0,0,0-.08a.16.16,0,0,0,0-.09s0,0,0-.06a.18.18,0,0,1,0-.11s0,0,0-.06a.84.84,0,0,1-.06-.14s0,0,0-.06l0-.09a.15.15,0,0,0-.05-.06.13.13,0,0,0,0,0l-6.36-8.33A1.84,1.84,0,0,0,15.23,28l4.1,5.36H1.84A1.91,1.91,0,0,0,0,35.26Z"/></g></g></svg>