<svg xmlns="http://www.w3.org/2000/svg" viewBox="0 0 57.13 56.83"><defs><style>.cls-1{fill:#fff;stroke:#db256e;stroke-miterlimit:10;}</style></defs><g id="Layer_2" data-name="Layer 2"><g id="Artwork"><path class="cls-1" d="M53.16,5.59a1.73,1.73,0,0,0-2.89-.83l-3,3A28.06,28.06,0,0,0,8.73,48.42a13.54,13.54,0,0,1,1,1,3,3,0,0,0,2,.76,3,3,0,0,0,2.24-1,3,3,0,0,0-.23-4.25l-.83-.77A22.07,22.07,0,0,1,43.07,12L39.83,15.2a1.73,1.73,0,0,0,.82,2.89l13.81,3.37a1.78,1.78,0,0,0,2.12-2.13Z"/><path class="cls-1" d="M38.47,31.25l-6.9-4.36v-11a3,3,0,0,0-6,0V28.48A3,3,0,0,0,27,31l8.26,5.25a3.23,3.23,0,0,0,1.6.47,2.92,2.92,0,0,0,2.53-1.42,2.85,2.85,0,0,0-.88-4.07Z"/><path class="cls-1" d="M22.83,49.84l-1.12-.35a3,3,0,1,0-1.88,5.66,12.48,12.48,0,0,0,1.41.41,3.43,3.43,0,0,0,.77.12,3,3,0,0,0,2.89-2.24,2.88,2.88,0,0,0-2.07-3.6Z"/><path class="cls-1" d="M33,50.14l-1.18.17a3,3,0,0,0-2.53,3.43,3.07,3.07,0,0,0,3,2.59,1.47,1.47,0,0,0,.47-.06c.47-.06,1-.18,1.47-.23a3,3,0,0,0,2.36-3.54A3.08,3.08,0,0,0,33,50.14Z"/><path class="cls-1" d="M42.25,45.89l-1,.71a3,3,0,0,0-.71,4.19,3.1,3.1,0,0,0,2.48,1.29,3,3,0,0,0,1.71-.53c.41-.29.83-.59,1.18-.88a3,3,0,0,0,.47-4.25,2.92,2.92,0,0,0-4.18-.53Z"/><path class="cls-1" d="M52.63,36.45a3,3,0,0,0-4,1.47L48.09,39a3,3,0,0,0,1.24,4.08,3.19,3.19,0,0,0,1.41.35,3,3,0,0,0,2.66-1.59,11.37,11.37,0,0,0,.65-1.36,3,3,0,0,0-1.42-4Z"/></g></g></svg>