<svg width="201" height="97" viewBox="0 0 201 97" fill="none" xmlns="http://www.w3.org/2000/svg">
<path d="M53.1201 17.5701H73.4001V21.3601H65.4001V42.72H61.0101V21.3601H53.0801V17.5701H53.1201ZM72.5301 24.51H76.2801V28H76.3501C76.4844 27.4798 76.7188 26.9907 77.0401 26.5601C77.3831 26.0799 77.794 25.652 78.2601 25.29C78.7414 24.9009 79.2771 24.5843 79.8501 24.3501C80.4139 24.114 81.0188 23.9916 81.6301 23.99C81.9632 23.9729 82.297 23.9729 82.6301 23.99C82.8001 23.99 82.9801 23.9901 83.1701 24.0601V28C82.8901 27.94 82.6101 27.9101 82.3101 27.8701C82.0101 27.8301 81.7201 27.8201 81.4401 27.8201C80.7815 27.819 80.1302 27.9587 79.5301 28.23C78.928 28.5009 78.3973 28.9082 77.9801 29.4199C77.503 30.0133 77.1433 30.692 76.9201 31.4199C76.6421 32.2854 76.5103 33.1913 76.5301 34.1001V42.76H72.5301V24.5701V24.51ZM101.53 42.72H97.6101V40.1799H97.5301C97.0322 41.1151 96.2707 41.8836 95.3401 42.3899C94.4305 42.9256 93.3957 43.212 92.3401 43.22C89.9601 43.22 88.2201 42.6299 87.1601 41.4399C85.988 39.9024 85.4221 37.9877 85.5701 36.0601V24.51H89.5701V35.6699C89.4486 36.8778 89.7761 38.0883 90.4901 39.0701C90.821 39.4093 91.2206 39.674 91.6621 39.8464C92.1036 40.0189 92.5768 40.0952 93.0501 40.0701C93.7705 40.0994 94.4882 39.966 95.1501 39.6799C95.6847 39.4502 96.1525 39.089 96.5101 38.6299C96.8803 38.1755 97.1405 37.6417 97.2701 37.0701C97.4344 36.4164 97.5117 35.7439 97.5001 35.0701V24.51H101.5L101.53 42.72ZM108.33 36.8799C108.344 37.3668 108.471 37.844 108.702 38.2729C108.933 38.7019 109.261 39.0708 109.66 39.3501C110.505 39.835 111.466 40.0804 112.44 40.0601C112.81 40.0601 113.23 40.06 113.71 39.97C114.17 39.9171 114.621 39.8027 115.05 39.6299C115.436 39.4738 115.78 39.2269 116.05 38.9099C116.329 38.5555 116.464 38.1095 116.43 37.6599C116.426 37.4222 116.373 37.1878 116.275 36.9712C116.177 36.7546 116.036 36.5602 115.86 36.3999C115.469 36.0495 115.014 35.7781 114.52 35.6001C113.906 35.3867 113.278 35.2162 112.64 35.0901C111.94 34.9501 111.23 34.7899 110.5 34.6299C109.773 34.4657 109.055 34.2622 108.35 34.02C107.68 33.7893 107.052 33.4516 106.49 33.02C105.937 32.6266 105.488 32.1051 105.18 31.5C104.83 30.7817 104.662 29.9884 104.69 29.1899C104.666 28.3053 104.917 27.435 105.41 26.7C105.892 26.0372 106.513 25.4879 107.23 25.0901C108.001 24.6759 108.83 24.3824 109.69 24.22C110.541 24.0618 111.404 23.9781 112.27 23.97C113.175 23.9709 114.077 24.0715 114.96 24.27C115.784 24.461 116.567 24.7998 117.27 25.27C117.962 25.7189 118.549 26.3125 118.99 27.01C119.472 27.7958 119.766 28.6822 119.85 29.6001H115.68C115.638 29.1951 115.497 28.8068 115.268 28.47C115.04 28.1331 114.731 27.8581 114.37 27.6699C113.633 27.3223 112.825 27.1511 112.01 27.1699C111.676 27.1721 111.342 27.1955 111.01 27.24C110.634 27.2885 110.265 27.3791 109.91 27.51C109.584 27.6279 109.29 27.8196 109.05 28.0701C108.802 28.3426 108.673 28.7022 108.69 29.0701C108.683 29.2946 108.726 29.518 108.816 29.7239C108.906 29.9297 109.04 30.1128 109.21 30.26C109.599 30.593 110.047 30.8507 110.53 31.02C111.142 31.2416 111.771 31.4155 112.41 31.54L114.58 32C115.3 32.16 116.01 32.3701 116.72 32.6001C117.395 32.8264 118.027 33.1645 118.59 33.6001C119.135 34.0043 119.588 34.5188 119.92 35.1101C120.276 35.8089 120.452 36.586 120.43 37.3701C120.455 38.3391 120.198 39.2946 119.69 40.1201C119.196 40.8631 118.544 41.4878 117.78 41.95C116.963 42.4155 116.079 42.7528 115.16 42.95C114.227 43.1556 113.275 43.2596 112.32 43.26C111.247 43.2747 110.178 43.1436 109.14 42.8701C108.23 42.6444 107.371 42.2471 106.61 41.7C105.903 41.1726 105.327 40.4879 104.93 39.7C104.503 38.8277 104.278 37.8709 104.27 36.8999H108.27L108.33 36.8799ZM121.52 24.51H124.52V19H128.52V24.47H132.12V27.47H128.52V37.2C128.52 37.62 128.52 37.98 128.52 38.3C128.553 38.5736 128.638 38.8383 128.77 39.0801C128.905 39.2996 129.109 39.4683 129.35 39.5601C129.691 39.6766 130.05 39.7307 130.41 39.72C130.7 39.72 130.98 39.72 131.26 39.72C131.546 39.7044 131.831 39.6644 132.11 39.6001V42.7C131.67 42.76 131.23 42.7901 130.82 42.8401C130.392 42.8969 129.961 42.9235 129.53 42.9199C128.669 42.9425 127.81 42.8382 126.98 42.6101C126.41 42.458 125.891 42.1537 125.48 41.73C125.106 41.3193 124.85 40.8147 124.74 40.27C124.601 39.6121 124.524 38.9424 124.51 38.27V27.53H121.51V24.53L121.52 24.51ZM134.97 24.51H138.75V27H138.82C139.33 25.9999 140.161 25.2003 141.18 24.73C142.206 24.2634 143.323 24.0279 144.45 24.04C145.735 24.0095 147.01 24.2693 148.18 24.8C149.213 25.2782 150.12 25.9902 150.83 26.8799C151.544 27.8011 152.077 28.8498 152.4 29.97C153.073 32.3602 153.073 34.8898 152.4 37.28C152.115 38.379 151.63 39.4163 150.97 40.3401C150.332 41.2238 149.497 41.9462 148.53 42.45C147.455 43.003 146.259 43.2781 145.05 43.25C144.463 43.2513 143.877 43.1978 143.3 43.0901C142.721 42.9838 142.158 42.8092 141.62 42.5701C141.086 42.3432 140.587 42.0399 140.14 41.6699C139.693 41.3052 139.305 40.8734 138.99 40.3899H138.92V49.48H134.92V24.54L134.97 24.51ZM148.97 33.6299C148.969 32.8226 148.861 32.0191 148.65 31.24C148.448 30.4972 148.108 29.7986 147.65 29.1799C147.244 28.5859 146.707 28.0932 146.08 27.74C145.094 27.2176 143.958 27.0526 142.864 27.2732C141.77 27.4938 140.787 28.0863 140.08 28.95C139.166 30.3339 138.718 31.9734 138.8 33.6299C138.79 34.4951 138.904 35.3574 139.14 36.1899C139.339 36.9158 139.679 37.5954 140.14 38.1899C140.565 38.7456 141.108 39.2 141.73 39.52C142.428 39.8606 143.197 40.0317 143.973 40.0195C144.75 40.0074 145.513 39.8122 146.2 39.45C146.819 39.0886 147.348 38.5932 147.75 38C148.164 37.3919 148.465 36.7145 148.64 36C148.804 35.2273 148.888 34.4397 148.89 33.6499L148.97 33.6299ZM156.02 17.5701H160.02V21.3601H156.02V17.5701ZM156.02 24.51H160.02V42.72H156.02V24.51ZM163.58 17.5701H167.58V42.72H163.58V17.5701ZM179.83 43.22C178.504 43.2405 177.188 42.9922 175.96 42.49C174.869 42.0301 173.885 41.3491 173.07 40.49C172.282 39.6188 171.677 38.5987 171.29 37.49C170.867 36.2441 170.657 34.9358 170.67 33.6201C170.658 32.3143 170.868 31.0157 171.29 29.78C171.677 28.6713 172.282 27.6512 173.07 26.78C173.876 25.9104 174.862 25.2277 175.96 24.78C178.448 23.8064 181.212 23.8064 183.7 24.78C184.793 25.2252 185.776 25.9032 186.581 26.7666C187.386 27.63 187.993 28.6583 188.36 29.78C188.783 31.0157 188.992 32.3143 188.98 33.6201C188.993 34.9358 188.783 36.2441 188.36 37.49C187.981 38.6024 187.375 39.624 186.58 40.49C185.778 41.3594 184.795 42.0422 183.7 42.49C182.473 42.9922 181.156 43.2405 179.83 43.22ZM179.83 40.04C180.637 40.0597 181.435 39.8629 182.14 39.47C182.782 39.1088 183.332 38.6061 183.75 38C184.182 37.374 184.5 36.6766 184.69 35.9399C184.886 35.1752 184.986 34.3895 184.99 33.6001C184.984 32.8142 184.883 32.0318 184.69 31.27C184.507 30.5312 184.188 29.8326 183.75 29.21C183.331 28.6098 182.781 28.1137 182.14 27.76C181.426 27.3867 180.631 27.1919 179.825 27.1919C179.019 27.1919 178.225 27.3867 177.51 27.76C176.878 28.1254 176.329 28.6193 175.9 29.21C175.473 29.8376 175.159 30.5347 174.97 31.27C174.772 32.0309 174.671 32.8139 174.67 33.6001C174.669 34.3898 174.77 35.1761 174.97 35.9399C175.152 36.6776 175.467 37.3758 175.9 38C176.322 38.6025 176.872 39.1044 177.51 39.47C178.217 39.8674 179.019 40.0645 179.83 40.04ZM190.15 24.51H193.15V19H197.15V24.47H200.75V27.47H197.15V37.2C197.144 37.5673 197.161 37.9347 197.2 38.3C197.229 38.5745 197.314 38.8401 197.45 39.0801C197.585 39.2996 197.789 39.4683 198.03 39.5601C198.371 39.6766 198.73 39.7307 199.09 39.72C199.37 39.72 199.66 39.72 199.94 39.72C200.226 39.7044 200.511 39.6644 200.79 39.6001V42.7C200.35 42.76 199.91 42.7901 199.5 42.8401C199.072 42.8969 198.641 42.9235 198.21 42.9199C197.349 42.9425 196.49 42.8382 195.66 42.6101C195.09 42.458 194.571 42.1537 194.16 41.73C193.786 41.3193 193.53 40.8147 193.42 40.27C193.281 39.6121 193.204 38.9424 193.19 38.27V27.53H190.19V24.53L190.15 24.51Z" fill="#2B2B2B"/>
<path d="M48.46 17.5701H30.14L24.49 0.0600586L18.81 17.5701H0.5L15.33 28.3999L9.66 45.8899L24.49 35.0701L39.3 45.8899L33.64 28.3999L48.46 17.5701Z" fill="#00B67A"/>
<path d="M34.9202 32.3401L33.6402 28.3401L24.4902 35.01L34.9202 32.3401Z" fill="#005128"/>
<path d="M35.62 59.3101H2.50999C1.3999 59.3101 0.5 60.21 0.5 61.3201V94.4299C0.5 95.54 1.3999 96.4399 2.50999 96.4399H35.62C36.7301 96.4399 37.63 95.54 37.63 94.4299V61.3201C37.63 60.21 36.7301 59.3101 35.62 59.3101Z" fill="#00B67A"/>
<path d="M27.1001 90.24L24.7301 82.9299L19.1201 84.4099L19.1001 84.4299L27.1001 90.24Z" fill="#C0E3D4"/>
<path d="M22.12 74.97L19.04 65.51L15.97 74.97H6L14.06 80.8401L10.98 90.29L19.04 84.47L19.1 84.4299L19.09 84.4199L19.12 84.4099L32.09 74.97H22.12Z" fill="white"/>
<path d="M19.0999 84.4299L19.1198 84.4099L19.0898 84.4199L19.0999 84.4299Z" fill="#00B67A"/>
<path d="M76.41 59.3101H43.3C42.1899 59.3101 41.29 60.21 41.29 61.3201V94.4299C41.29 95.54 42.1899 96.4399 43.3 96.4399H76.41C77.5201 96.4399 78.42 95.54 78.42 94.4299V61.3201C78.42 60.21 77.5201 59.3101 76.41 59.3101Z" fill="#00B67A"/>
<path d="M67.8899 90.24L65.5099 82.9299L59.8999 84.4099L59.8799 84.4299L67.8899 90.24Z" fill="#C0E3D4"/>
<path d="M62.9 74.97L59.83 65.51L56.75 74.97H46.79L54.84 80.8401L51.77 90.29L59.83 84.47L59.88 84.4299V84.4199L59.9 84.4099L72.87 74.97H62.9Z" fill="white"/>
<path d="M59.8799 84.4299L59.8999 84.4099L59.8799 84.4199V84.4299Z" fill="#00B67A"/>
<path d="M117.19 59.3101H84.0803C82.9702 59.3101 82.0703 60.21 82.0703 61.3201V94.4299C82.0703 95.54 82.9702 96.4399 84.0803 96.4399H117.19C118.3 96.4399 119.2 95.54 119.2 94.4299V61.3201C119.2 60.21 118.3 59.3101 117.19 59.3101Z" fill="#00B67A"/>
<path d="M108.67 90.24L106.3 82.9299L100.69 84.4099L100.67 84.4299L108.67 90.24Z" fill="#C0E3D4"/>
<path d="M103.69 74.97L100.61 65.51L97.5403 74.97H87.5703L95.6303 80.8401L92.5503 90.29L100.61 84.47L100.67 84.4299L100.66 84.4199L100.69 84.4099L113.66 74.97H103.69Z" fill="white"/>
<path d="M100.67 84.4299L100.69 84.4099L100.66 84.4199L100.67 84.4299Z" fill="#00B67A"/>
<path d="M157.98 59.3101H124.87C123.76 59.3101 122.86 60.21 122.86 61.3201V94.4299C122.86 95.54 123.76 96.4399 124.87 96.4399H157.98C159.09 96.4399 159.99 95.54 159.99 94.4299V61.3201C159.99 60.21 159.09 59.3101 157.98 59.3101Z" fill="#00B67A"/>
<path d="M149.46 90.24L147.08 82.9299L141.47 84.4099L141.45 84.4299L149.46 90.24Z" fill="#C0E3D4"/>
<path d="M144.47 74.97L141.4 65.51L138.32 74.97H128.35L136.41 80.8401L133.34 90.29L141.4 84.47L141.45 84.4299L141.44 84.4199L141.47 84.4099L154.44 74.97H144.47Z" fill="white"/>
<path d="M141.45 84.4299L141.47 84.4099L141.44 84.4199L141.45 84.4299Z" fill="#00B67A"/>
<path d="M198.76 59.3101H165.65C164.54 59.3101 163.64 60.21 163.64 61.3201V94.4299C163.64 95.54 164.54 96.4399 165.65 96.4399H198.76C199.87 96.4399 200.77 95.54 200.77 94.4299V61.3201C200.77 60.21 199.87 59.3101 198.76 59.3101Z" fill="#00B67A"/>
<path d="M190.24 90.24L187.87 82.9299L182.25 84.4099L182.24 84.4299L190.24 90.24Z" fill="#C0E3D4"/>
<path d="M185.26 74.97L182.18 65.51L179.11 74.97H169.14L177.2 80.8401L174.12 90.29L182.18 84.47L182.24 84.4299L182.23 84.4199L182.25 84.4099L195.23 74.97H185.26Z" fill="white"/>
<path d="M182.24 84.4299L182.25 84.4099L182.23 84.4199L182.24 84.4299Z" fill="#00B67A"/>
</svg>
