<svg width="96" height="96" viewBox="0 0 96 96" fill="none" xmlns="http://www.w3.org/2000/svg">
<path d="M48.0004 44.9986C50.315 45.0022 52.5395 44.0995 54.2003 42.4828C55.0178 41.6845 55.668 40.7305 56.1127 39.6768C56.5575 38.6231 56.7879 37.4909 56.7904 36.3466V34.3626C56.7873 33.2184 56.5567 32.0864 56.1119 31.0327C55.6672 29.9791 55.0173 29.025 54.2003 28.2264C52.5379 26.6119 50.3145 25.7092 48.0004 25.7092C45.6863 25.7092 43.4629 26.6119 41.8005 28.2264C40.9798 29.0222 40.3275 29.9757 39.8825 31.03C39.4375 32.0843 39.2089 33.2177 39.2105 34.3626V36.3364C39.2083 37.4813 39.4366 38.6149 39.8816 39.6693C40.3267 40.7237 40.9794 41.6771 41.8005 42.4725C43.4573 44.0967 45.6836 45.0038 48.0004 44.9986ZM42.7386 34.3626C42.7402 33.6889 42.8763 33.0223 43.139 32.4022C43.4017 31.7822 43.7857 31.2212 44.2682 30.7525C45.27 29.7827 46.6081 29.2407 48.0004 29.2407C49.3928 29.2407 50.7308 29.7827 51.7326 30.7525C52.2137 31.2217 52.5961 31.783 52.8571 32.4031C53.1181 33.0232 53.2523 33.6895 53.2519 34.3626V36.3364C53.2515 37.0078 53.1169 37.6724 52.8559 38.2907C52.5949 38.909 52.2129 39.4685 51.7326 39.9362C50.7308 40.906 49.3928 41.448 48.0004 41.448C46.6081 41.448 45.27 40.906 44.2682 39.9362C43.7865 39.4691 43.4029 38.9098 43.1402 38.2916C42.8775 37.6733 42.741 37.0085 42.7386 36.3364V34.3626Z" fill="white"/>
<path d="M55.4132 46.7163H40.5865C39.5376 46.715 38.4987 46.9212 37.5294 47.3231C36.56 47.7251 35.6794 48.3149 34.9377 49.0587C34.196 49.8026 33.6079 50.6858 33.2071 51.658C32.8064 52.6301 32.6007 53.672 32.6021 54.724V68.5201C32.6021 68.9893 32.7879 69.4393 33.1188 69.7711C33.4496 70.1029 33.8983 70.2894 34.3662 70.2894C34.8341 70.2894 35.2828 70.1029 35.6136 69.7711C35.9444 69.4393 36.1303 68.9893 36.1303 68.5201V54.7444C36.1303 53.5591 36.5998 52.4224 37.4355 51.5843C38.2712 50.7461 39.4046 50.2753 40.5865 50.2753H55.4132C56.5933 50.278 57.7241 50.7501 58.5576 51.5879C59.3911 52.4257 59.8592 53.5609 59.8592 54.7444V68.5405C59.8407 68.7849 59.8726 69.0304 59.9531 69.2618C60.0337 69.4931 60.161 69.7053 60.3271 69.885C60.4932 70.0647 60.6945 70.2081 60.9184 70.3062C61.1423 70.4042 61.384 70.4548 61.6284 70.4548C61.8727 70.4548 62.1144 70.4042 62.3383 70.3062C62.5622 70.2081 62.7635 70.0647 62.9296 69.885C63.0957 69.7053 63.2231 69.4931 63.3036 69.2618C63.3841 69.0304 63.4161 68.7849 63.3976 68.5405V54.7444C63.3989 53.6925 63.1933 52.6506 62.7925 51.6785C62.3918 50.7063 61.8037 49.823 61.062 49.0792C60.3203 48.3353 59.4396 47.7455 58.4702 47.3436C57.5009 46.9416 56.4621 46.7354 55.4132 46.7368V46.7163Z" fill="white"/>
<path d="M40.9541 56.1765C40.7215 56.1765 40.4914 56.2226 40.2767 56.3122C40.062 56.4017 39.867 56.533 39.7031 56.6983C39.5391 56.8637 39.4093 57.06 39.3213 57.2758C39.2332 57.4916 39.1886 57.7228 39.19 57.956V68.5204C39.19 68.9896 39.3758 69.4397 39.7067 69.7715C40.0375 70.1033 40.4862 70.2897 40.9541 70.2897C41.4219 70.2897 41.8707 70.1033 42.2015 69.7715C42.5323 69.4397 42.7182 68.9896 42.7182 68.5204V57.956C42.7196 57.7228 42.6749 57.4916 42.5868 57.2758C42.4988 57.06 42.3691 56.8637 42.2051 56.6983C42.0412 56.533 41.8462 56.4017 41.6315 56.3122C41.4168 56.2226 41.1866 56.1765 40.9541 56.1765Z" fill="white"/>
<path d="M55.0468 56.1765C54.5762 56.1765 54.1249 56.364 53.7922 56.6977C53.4594 57.0314 53.2725 57.4841 53.2725 57.956V68.5204C53.3063 68.9677 53.5075 69.3857 53.8355 69.6907C54.1636 69.9956 54.5943 70.1651 55.0417 70.1651C55.489 70.1651 55.9198 69.9956 56.2478 69.6907C56.5759 69.3857 56.777 68.9677 56.8109 68.5204V57.956C56.8123 57.7228 56.7676 57.4916 56.6795 57.2758C56.5915 57.06 56.4618 56.8637 56.2978 56.6983C56.1339 56.533 55.9389 56.4017 55.7242 56.3122C55.5095 56.2226 55.2793 56.1765 55.0468 56.1765V56.1765Z" fill="white"/>
<path d="M24.1489 26.59C24.3083 26.7742 24.5039 26.9235 24.7233 27.0287C24.9427 27.1339 25.1814 27.1927 25.4244 27.2015C25.6674 27.2104 25.9097 27.169 26.1361 27.0799C26.3625 26.9909 26.5682 26.8562 26.7406 26.684C26.9129 26.5119 27.0481 26.3061 27.1378 26.0794C27.2274 25.8527 27.2697 25.6099 27.2619 25.3661C27.2541 25.1224 27.1964 24.8828 27.0925 24.6623C26.9885 24.4418 26.8404 24.2451 26.6574 24.0844L16.654 14.0518C16.3217 13.7215 15.8727 13.5361 15.4048 13.5361C14.9369 13.5361 14.4879 13.7215 14.1557 14.0518C13.9913 14.2162 13.8609 14.4115 13.772 14.6265C13.683 14.8414 13.6372 15.0719 13.6372 15.3046C13.6372 15.5374 13.683 15.7679 13.772 15.9828C13.8609 16.1978 13.9913 16.3931 14.1557 16.5575L24.1489 26.59Z" fill="white"/>
<path d="M81.8447 81.9379C82.009 81.7736 82.1394 81.5783 82.2284 81.3634C82.3173 81.1484 82.3631 80.9179 82.3631 80.6851C82.3631 80.4524 82.3173 80.2219 82.2284 80.0069C82.1394 79.792 82.009 79.5967 81.8447 79.4324L71.8514 69.41C71.5132 69.1129 71.0751 68.9557 70.6257 68.9702C70.1763 68.9846 69.7491 69.1697 69.4305 69.4879C69.1119 69.8061 68.9256 70.2337 68.9094 70.6844C68.8931 71.135 69.0481 71.5751 69.3429 71.9156L79.3463 81.9379C79.5102 82.1027 79.7049 82.2335 79.9193 82.3227C80.1336 82.4119 80.3634 82.4579 80.5955 82.4579C80.8276 82.4579 81.0574 82.4119 81.2718 82.3227C81.4861 82.2335 81.6808 82.1027 81.8447 81.9379Z" fill="white"/>
<path d="M26.6574 69.4102C26.3247 69.0767 25.8735 68.8894 25.4031 68.8894C24.9327 68.8894 24.4816 69.0767 24.1489 69.4102L14.1556 79.4326C13.9916 79.5971 13.8615 79.7924 13.7727 80.0074C13.6839 80.2223 13.6382 80.4527 13.6382 80.6854C13.6382 80.9181 13.6839 81.1484 13.7727 81.3634C13.8615 81.5784 13.9916 81.7737 14.1556 81.9382C14.3197 82.1027 14.5144 82.2332 14.7287 82.3223C14.9431 82.4113 15.1728 82.4571 15.4048 82.4571C15.6368 82.4571 15.8665 82.4113 16.0808 82.3223C16.2951 82.2332 16.4899 82.1027 16.654 81.9382L26.6574 71.9158C26.9868 71.5826 27.1716 71.1323 27.1716 70.663C27.1716 70.1938 26.9868 69.7435 26.6574 69.4102Z" fill="white"/>
<path d="M71.8926 26.59L81.896 16.5575C82.0604 16.3931 82.1908 16.1978 82.2797 15.9828C82.3687 15.7679 82.4145 15.5374 82.4145 15.3046C82.4145 15.0719 82.3687 14.8414 82.2797 14.6265C82.1908 14.4115 82.0604 14.2162 81.896 14.0518C81.5637 13.7215 81.1148 13.5361 80.6469 13.5361C80.179 13.5361 79.73 13.7215 79.3977 14.0518L69.3433 24.064C69.0139 24.3973 68.8291 24.8475 68.8291 25.3168C68.8291 25.7861 69.0139 26.2363 69.3433 26.5696C69.5066 26.7436 69.7034 26.8825 69.9217 26.9781C70.14 27.0738 70.3754 27.124 70.6136 27.126C70.8518 27.1279 71.088 27.0814 71.3078 26.9893C71.5276 26.8972 71.7266 26.7614 71.8926 26.59V26.59Z" fill="white"/>
<path d="M48 17.7232C48.2325 17.7232 48.4627 17.6771 48.6774 17.5876C48.8921 17.498 49.087 17.3668 49.251 17.2014C49.4149 17.036 49.5447 16.8398 49.6327 16.624C49.7208 16.4081 49.7654 16.1769 49.7641 15.9437V1.76927C49.7641 1.30003 49.5782 0.850011 49.2473 0.518212C48.9165 0.186412 48.4678 0 48 0C47.5321 0 47.0833 0.186412 46.7525 0.518212C46.4217 0.850011 46.2359 1.30003 46.2359 1.76927V15.9437C46.2345 16.1769 46.2791 16.4081 46.3672 16.624C46.4552 16.8398 46.585 17.036 46.7489 17.2014C46.9128 17.3668 47.1078 17.498 47.3225 17.5876C47.5372 17.6771 47.7674 17.7232 48 17.7232V17.7232Z" fill="white"/>
<path d="M48 96.0001C48.2325 96.0001 48.4627 95.954 48.6774 95.8644C48.8921 95.7749 49.087 95.6436 49.251 95.4783C49.4149 95.3129 49.5447 95.1166 49.6327 94.9008C49.7208 94.685 49.7654 94.4538 49.7641 94.2206V80.0461C49.7641 79.5769 49.5782 79.1268 49.2473 78.795C48.9165 78.4632 48.4678 78.2769 48 78.2769C47.5321 78.2769 47.0833 78.4632 46.7525 78.795C46.4217 79.1268 46.2359 79.5769 46.2359 80.0461V94.2206C46.2345 94.4538 46.2791 94.685 46.3672 94.9008C46.4552 95.1166 46.585 95.3129 46.7489 95.4783C46.9128 95.6436 47.1078 95.7749 47.3225 95.8644C47.5372 95.954 47.7674 96.0001 48 96.0001V96.0001Z" fill="white"/>
<path d="M1.90873 49.7743H16.042C16.2856 49.7929 16.5305 49.7607 16.7612 49.68C16.9919 49.5992 17.2034 49.4716 17.3826 49.305C17.5618 49.1384 17.7048 48.9365 17.8026 48.712C17.9003 48.4874 17.9507 48.245 17.9507 47.9999C17.9507 47.7549 17.9003 47.5125 17.8026 47.2879C17.7048 47.0633 17.5618 46.8614 17.3826 46.6948C17.2034 46.5283 16.9919 46.4006 16.7612 46.3199C16.5305 46.2391 16.2856 46.207 16.042 46.2256H1.90873C1.66511 46.207 1.42031 46.2391 1.18963 46.3199C0.958947 46.4006 0.74737 46.5283 0.568177 46.6948C0.388983 46.8614 0.246016 47.0633 0.148252 47.2879C0.0504886 47.5125 0 47.7549 0 47.9999C0 48.245 0.0504886 48.4874 0.148252 48.712C0.246016 48.9365 0.388983 49.1384 0.568177 49.305C0.74737 49.4716 0.958947 49.5992 1.18963 49.68C1.42031 49.7607 1.66511 49.7929 1.90873 49.7743Z" fill="white"/>
<path d="M78.1836 47.9948C78.1836 48.4668 78.3705 48.9194 78.7033 49.2531C79.036 49.5868 79.4873 49.7743 79.9579 49.7743H94.0912C94.3349 49.7929 94.5797 49.7607 94.8103 49.68C95.041 49.5992 95.2526 49.4716 95.4318 49.305C95.611 49.1384 95.754 48.9365 95.8517 48.712C95.9495 48.4874 95.9999 48.245 95.9999 47.9999C95.9999 47.7549 95.9495 47.5125 95.8517 47.2879C95.754 47.0633 95.611 46.8614 95.4318 46.6948C95.2526 46.5283 95.041 46.4006 94.8103 46.3199C94.5797 46.2391 94.3349 46.207 94.0912 46.2256H79.9579C79.4891 46.2256 79.0394 46.4116 78.7069 46.7431C78.3744 47.0746 78.1863 47.5246 78.1836 47.9948Z" fill="white"/>
<path d="M63.337 85.4256C63.5523 85.3381 63.7482 85.2087 63.9134 85.045C64.0787 84.8814 64.2101 84.6866 64.3001 84.4718C64.3901 84.2571 64.4369 84.0266 64.4379 83.7936C64.4389 83.5607 64.394 83.3299 64.3058 83.1144L61.7769 76.9782C61.5998 76.5429 61.2574 76.196 60.8252 76.0138C60.393 75.8316 59.9064 75.829 59.4723 76.0067C59.0383 76.1843 58.6924 76.5276 58.5107 76.9611C58.329 77.3945 58.3264 77.8826 58.5036 78.3179L61.0325 84.4541C61.1198 84.6699 61.2488 84.8664 61.412 85.0321C61.5752 85.1979 61.7694 85.3297 61.9835 85.4199C62.1977 85.5102 62.4275 85.5572 62.6598 85.5582C62.892 85.5591 63.1222 85.5141 63.337 85.4256V85.4256Z" fill="white"/>
<path d="M75.9712 36.4896C76.0536 36.71 76.179 36.9117 76.34 37.0828C76.5011 37.254 76.6946 37.3913 76.9093 37.4865C77.1239 37.5817 77.3553 37.6331 77.5899 37.6375C77.8246 37.6419 78.0577 37.5993 78.2758 37.5123L84.3941 34.976C84.7952 34.7753 85.1057 34.4297 85.2631 34.0088C85.4206 33.5878 85.4133 33.1228 85.2428 32.707C85.0724 32.2912 84.7513 31.9555 84.3441 31.7675C83.937 31.5794 83.4739 31.5528 83.048 31.6931L76.9297 34.2294C76.5093 34.4084 76.1745 34.744 75.9957 35.1655C75.817 35.587 75.8082 36.0617 75.9712 36.4896V36.4896Z" fill="white"/>
<path d="M59.6557 20.055C60.0886 20.2352 60.575 20.2363 61.0087 20.0581C61.4423 19.8799 61.7881 19.5369 61.9705 19.1039L64.5401 12.9677C64.7192 12.5323 64.7189 12.0435 64.5393 11.6083C64.3596 11.1731 64.0152 10.8272 63.5816 10.6462C63.3682 10.5558 63.139 10.5087 62.9072 10.5076C62.6755 10.5065 62.4459 10.5515 62.2316 10.6399C62.0174 10.7283 61.8226 10.8585 61.6588 11.0228C61.495 11.1871 61.3653 11.3824 61.2771 11.5973L58.7074 17.7335C58.5277 18.1676 58.5265 18.6554 58.7042 19.0903C58.8819 19.5253 59.224 19.8721 59.6557 20.055Z" fill="white"/>
<path d="M34.224 19.0221C34.3001 19.2545 34.4231 19.4686 34.5855 19.6511C34.7478 19.8336 34.9459 19.9806 35.1674 20.083C35.3889 20.1853 35.6291 20.2407 35.8729 20.2457C36.1167 20.2508 36.3589 20.2054 36.5844 20.1124C36.81 20.0194 37.014 19.8808 37.1837 19.7052C37.3535 19.5295 37.4853 19.3207 37.5709 19.0917C37.6566 18.8627 37.6942 18.6185 37.6816 18.3742C37.6689 18.13 37.6062 17.891 37.4973 17.6721L34.9683 11.536C34.7682 11.1337 34.4237 10.8223 34.004 10.6644C33.5843 10.5065 33.1206 10.5138 32.706 10.6847C32.2914 10.8557 31.9567 11.1777 31.7692 11.5861C31.5816 11.9944 31.5552 12.4588 31.6951 12.8859L34.224 19.0221Z" fill="white"/>
<path d="M85.2611 63.6113C85.4407 63.1771 85.4419 62.6893 85.2642 62.2544C85.0865 61.8194 84.7445 61.4726 84.3127 61.2897L78.1944 58.7228C77.9808 58.6328 77.7517 58.5859 77.52 58.5847C77.2883 58.5836 77.0587 58.6282 76.8442 58.716C76.6297 58.8039 76.4346 58.9332 76.27 59.0967C76.1054 59.2602 75.9745 59.4546 75.8847 59.6688C75.7035 60.1014 75.7011 60.5885 75.878 61.0229C76.0549 61.4573 76.3967 61.8034 76.828 61.9852L82.9463 64.5624C83.3792 64.7426 83.8655 64.7437 84.2992 64.5655C84.7329 64.3873 85.0787 64.0443 85.2611 63.6113V63.6113Z" fill="white"/>
<path d="M32.439 85.364C32.8705 85.5439 33.3554 85.5447 33.7874 85.3664C34.2195 85.1881 34.5633 84.8452 34.7436 84.4129L37.3133 78.2768C37.403 78.0619 37.4497 77.8314 37.4506 77.5985C37.4515 77.3655 37.4066 77.1346 37.3185 76.9191C37.2305 76.7035 37.101 76.5074 36.9373 76.3421C36.7737 76.1767 36.5792 76.0453 36.3649 75.9553C36.1507 75.8653 35.9209 75.8185 35.6886 75.8176C35.4563 75.8167 35.2261 75.8617 35.0112 75.95C34.7962 76.0384 34.6007 76.1683 34.4358 76.3324C34.271 76.4964 34.1399 76.6915 34.0502 76.9064L31.4805 83.0425C31.3904 83.258 31.3438 83.4891 31.3433 83.7227C31.3427 83.9563 31.3884 84.1878 31.4775 84.4036C31.5666 84.6194 31.6975 84.8154 31.8625 84.9803C32.0276 85.1451 32.2235 85.2755 32.439 85.364Z" fill="white"/>
<path d="M11.7289 34.7L17.8472 37.2772C18.0614 37.3672 18.2912 37.4139 18.5235 37.4148C18.7558 37.4157 18.986 37.3708 19.201 37.2825C19.4159 37.1941 19.6114 37.0642 19.7763 36.9001C19.9411 36.736 20.0722 36.541 20.162 36.3261C20.2517 36.1112 20.2983 35.8807 20.2992 35.6477C20.3001 35.4148 20.2552 35.1839 20.1672 34.9684C20.0791 34.7528 19.9496 34.5567 19.786 34.3914C19.6224 34.226 19.4279 34.0946 19.2136 34.0046L13.0953 31.4376C12.8817 31.3476 12.6525 31.3007 12.4208 31.2996C12.1892 31.2984 11.9596 31.343 11.7451 31.4309C11.5306 31.5187 11.3355 31.6481 11.1709 31.8116C11.0063 31.975 10.8754 32.1694 10.7856 32.3836C10.6959 32.5978 10.6491 32.8277 10.648 33.06C10.6468 33.2924 10.6913 33.5226 10.7789 33.7377C10.8665 33.9528 10.9955 34.1485 11.1585 34.3136C11.3214 34.4787 11.5153 34.61 11.7289 34.7V34.7Z" fill="white"/>
<path d="M17.7654 58.5286L11.6471 61.0649C11.246 61.2656 10.9355 61.6112 10.7781 62.0321C10.6206 62.453 10.6279 62.9181 10.7984 63.3339C10.9689 63.7497 11.2899 64.0853 11.6971 64.2734C12.1043 64.4615 12.5673 64.488 12.9932 64.3477L19.1115 61.8114C19.5126 61.6107 19.8231 61.2652 19.9805 60.8442C20.138 60.4233 20.1307 59.9582 19.9602 59.5424C19.7897 59.1266 19.4687 58.791 19.0616 58.6029C18.6544 58.4148 18.1913 58.3883 17.7654 58.5286V58.5286Z" fill="white"/>
</svg>
