<svg width="40" height="40" viewBox="0 0 40 40" fill="none" xmlns="http://www.w3.org/2000/svg">
<path d="M39.9999 19.9503C40.0098 23.9012 38.8492 27.7664 36.6647 31.0584C34.4802 34.3504 31.3696 36.9215 27.7253 38.4476C24.0811 39.9737 20.0665 40.3864 16.1881 39.6334C12.3096 38.8804 8.74109 36.9954 5.9327 34.2165C3.1243 31.4376 1.20189 27.8893 0.40797 24.019C-0.385946 20.1487 -0.0157964 16.1299 1.47175 12.4698C2.95929 8.80965 5.49758 5.67197 8.76634 3.45283C12.0351 1.23369 15.8879 0.0325252 19.8386 0.000651055C22.4744 -0.0206138 25.0884 0.479231 27.5302 1.47165C29.9721 2.46406 32.1937 3.92954 34.0673 5.78349C35.9409 7.63744 37.4296 9.84337 38.4477 12.2746C39.4659 14.7059 39.9934 17.3145 39.9999 19.9503ZM11.139 32.6217L11.5826 32.682C12.3487 32.309 13.135 31.9765 13.8709 31.5531C14.5446 31.089 15.3069 30.7688 16.11 30.6127C16.9131 30.4566 17.7397 30.4678 18.5382 30.6457C19.5939 30.8471 20.6781 30.8471 21.7338 30.6457C26.6834 29.8796 30.3124 27.2991 32.0463 22.5209C32.8155 20.5434 33.0011 18.3865 32.5812 16.3066C32.1613 14.2268 31.1535 12.3111 29.6774 10.7869C28.4413 9.43962 26.9425 8.35978 25.2733 7.61356C23.6041 6.86733 21.7998 6.47065 19.9716 6.44798C18.1433 6.42532 16.3298 6.77702 14.6426 7.48164C12.9554 8.18626 11.4303 9.22875 10.1612 10.545C6.40115 14.4462 5.61487 20.5046 8.79027 24.8393C10.5443 27.2082 12.1169 29.406 11.139 32.6217Z" fill="white"/>
<path d="M21.1791 22.6116L17.8424 19.0129L12.7013 22.0371L12.54 21.8656L18.8807 15.0309C19.7174 16.039 20.4735 17.0472 21.1993 17.9443C21.7033 18.5996 22.2074 18.5592 22.8828 18.156C24.2516 17.3086 25.6959 16.5897 27.1973 16.0087L21.1791 22.6116Z" fill="white"/>
</svg>
