<svg width="40" height="40" viewBox="0 0 40 40" fill="none" xmlns="http://www.w3.org/2000/svg">
<path d="M20.3619 0.00115385C25.7032 0.13484 30.7722 2.36979 34.4539 6.21435C38.1355 10.0589 40.1282 15.1981 39.9936 20.5015C39.8589 25.8048 37.608 30.8377 33.7359 34.4932C29.8639 38.1487 24.6878 40.1273 19.3465 39.9936C8.38083 39.7517 -0.219121 30.5575 0.00425451 19.2866C0.194611 14.071 2.42961 9.13559 6.23266 5.53283C10.0357 1.93007 15.1058 -0.0548543 20.3619 0.00115385ZM20.0167 28.0976C22.7987 28.0976 25.5808 28.0976 28.3628 28.0976C28.8842 28.134 29.4074 28.0585 29.8966 27.8759C30.3859 27.6933 30.8297 27.4079 31.1979 27.0395C31.566 26.6711 31.8498 26.2282 32.0299 25.741C32.21 25.2538 32.2821 24.7339 32.2414 24.2165C32.2414 21.1316 32.2414 18.0365 32.2414 14.9516C32.2849 14.4331 32.2152 13.9115 32.0371 13.4221C31.8591 12.9328 31.5769 12.4872 31.2097 12.116C30.8425 11.7447 30.3991 11.4564 29.9096 11.2708C29.42 11.0851 28.8959 11.0065 28.373 11.0401C22.7818 11.0401 17.1805 11.0401 11.569 11.0401C11.0467 11.0036 10.5226 11.0794 10.0326 11.2626C9.54255 11.4458 9.09819 11.7322 8.72987 12.1017C8.36155 12.4712 8.07798 12.9153 7.89858 13.4037C7.71918 13.8921 7.64817 14.4134 7.69042 14.9316C7.69042 18.0165 7.69042 21.1114 7.69042 24.1963C7.64798 24.7246 7.72259 25.2557 7.90899 25.7523C8.0954 26.2489 8.38909 26.699 8.76941 27.0708C9.14972 27.4427 9.60745 27.7273 10.1104 27.9047C10.6134 28.0821 11.1494 28.1479 11.6807 28.0976C14.4628 28.1178 17.2448 28.0976 20.0167 28.0976Z" fill="white"/>
<path d="M17.3447 15L24.0947 19.4399L17.3447 23.8899V15Z" fill="white"/>
</svg>
